<svg width="500" height="373" viewBox="0 0 500 373" fill="none" xmlns="http://www.w3.org/2000/svg">
<path d="M500 327.4H0V327.65H500V327.4Z" fill="#EBEBEB"/>
<path d="M449.9 343.49H416.78V343.74H449.9V343.49Z" fill="#EBEBEB"/>
<path d="M331.22 346.21H322.53V346.46H331.22V346.21Z" fill="#EBEBEB"/>
<path d="M415.78 334.21H396.59V334.46H415.78V334.21Z" fill="#EBEBEB"/>
<path d="M95.65 335.89H52.46V336.14H95.65V335.89Z" fill="#EBEBEB"/>
<path d="M110.89 335.89H104.56V336.14H110.89V335.89Z" fill="#EBEBEB"/>
<path d="M225.15 340.11H131.47V340.36H225.15V340.11Z" fill="#EBEBEB"/>
<path d="M237 282.8H43.91C42.3973 282.797 40.9475 282.195 39.8788 281.124C38.8102 280.053 38.21 278.603 38.21 277.09V5.66C38.2231 4.15602 38.8292 2.71798 39.8964 1.65822C40.9637 0.598458 42.4059 0.00257639 43.91 0H237C238.514 0 239.967 0.601588 241.038 1.67242C242.108 2.74325 242.71 4.19561 242.71 5.71V277.09C242.71 278.604 242.108 280.057 241.038 281.128C239.967 282.198 238.514 282.8 237 282.8ZM43.91 0.200001C42.4636 0.20265 41.0774 0.779065 40.0556 1.80273C39.0338 2.82639 38.46 4.21365 38.46 5.66V277.09C38.46 278.536 39.0338 279.924 40.0556 280.947C41.0774 281.971 42.4636 282.547 43.91 282.55H237C238.447 282.547 239.834 281.971 240.858 280.948C241.881 279.924 242.457 278.537 242.46 277.09V5.66C242.457 4.21273 241.881 2.82549 240.858 1.80212C239.834 0.77874 238.447 0.202644 237 0.200001H43.91Z" fill="#EBEBEB"/>
<path d="M453.31 282.8H260.21C258.696 282.797 257.246 282.195 256.175 281.125C255.105 280.054 254.503 278.604 254.5 277.09V5.66C254.516 4.15511 255.124 2.71708 256.193 1.65759C257.262 0.598109 258.705 0.00254829 260.21 0H453.31C454.812 0.0052045 456.252 0.602249 457.317 1.66173C458.382 2.72121 458.987 4.15775 459 5.66V277.09C459 278.601 458.401 280.05 457.335 281.121C456.268 282.191 454.821 282.795 453.31 282.8ZM260.21 0.200001C258.763 0.202644 257.375 0.77874 256.352 1.80212C255.329 2.82549 254.753 4.21273 254.75 5.66V277.09C254.753 278.537 255.329 279.924 256.352 280.948C257.375 281.971 258.763 282.547 260.21 282.55H453.31C454.757 282.547 456.145 281.971 457.168 280.948C458.191 279.924 458.767 278.537 458.77 277.09V5.66C458.767 4.21273 458.191 2.82549 457.168 1.80212C456.145 0.77874 454.757 0.202644 453.31 0.200001H260.21Z" fill="#EBEBEB"/>
<path d="M390 262V229.12H334.88V157.07H325.21V198.36H298.86V186.94H251.41V147.4H242.62V99.0801H235.59V146.52H218.9V216.81H187.27V146.52H130.16V216.81H102.04V311.71H403.41V270L390 262Z" fill="#E0E0E0"/>
<path d="M250.75 253L230.74 212H105.76L85.75 253H101V312H235V253H250.75Z" fill="#F0F0F0"/>
<path d="M315.41 258.38H223V312H315.41V258.38Z" fill="#F0F0F0"/>
<path d="M313.76 262H237.85V271.58H313.76V262Z" fill="#E6E6E6"/>
<path d="M313.76 276.09H237.85V285.67H313.76V276.09Z" fill="#E6E6E6"/>
<path d="M313.76 290.18H237.85V299.76H313.76V290.18Z" fill="#E6E6E6"/>
<path d="M313.76 304.27H237.85V312H313.76V304.27Z" fill="#E6E6E6"/>
<path d="M213 253H97L83.76 212L63.75 253H79V312H129L213 261.33V253Z" fill="#E6E6E6"/>
<path d="M423.14 78.27H416.38V312H423.14V78.27Z" fill="#E6E6E6"/>
<path d="M445.292 99.3742C447.578 85.2875 438.012 72.0144 423.926 69.7278C409.839 67.4412 396.566 77.007 394.279 91.0937C391.993 105.18 401.559 118.453 415.645 120.74C429.732 123.027 443.005 113.461 445.292 99.3742Z" fill="#EBEBEB"/>
<path d="M411.05 102.34L412.25 99.81C414.355 101.527 416.994 102.454 419.71 102.43C423.63 102.43 425.31 100.91 425.31 98.94C425.31 93.42 411.6 96.94 411.6 88.5C411.6 85.01 414.32 82.04 420.26 82.04C422.828 81.9935 425.356 82.6878 427.54 84.04L426.47 86.63C424.615 85.4436 422.462 84.8057 420.26 84.79C416.42 84.79 414.77 86.4 414.77 88.37C414.77 93.9 428.47 90.44 428.47 98.75C428.47 102.21 425.69 105.18 419.71 105.18C416.26 105.18 412.86 104 411.05 102.34Z" fill="white"/>
<path d="M442.044 98.8469C444.039 86.5538 435.692 74.9706 423.398 72.9752C411.105 70.9797 399.522 79.3276 397.527 91.6207C395.531 103.914 403.879 115.497 416.172 117.492C428.465 119.488 440.049 111.14 442.044 98.8469Z" stroke="white" stroke-width="2" stroke-miterlimit="10"/>
<path d="M250 372.56C357.082 372.56 443.89 367.492 443.89 361.24C443.89 354.988 357.082 349.92 250 349.92C142.917 349.92 56.1099 354.988 56.1099 361.24C56.1099 367.492 142.917 372.56 250 372.56Z" fill="#F5F5F5"/>
<path d="M443 313.3V327H57.0001V313.3C56.9705 312.753 57.0514 312.205 57.2381 311.69C57.4248 311.174 57.7135 310.702 58.0868 310.3C58.4602 309.899 58.9105 309.577 59.4111 309.354C59.9116 309.13 60.4521 309.01 61.0001 309H439C439.548 309.01 440.089 309.13 440.589 309.354C441.09 309.577 441.54 309.899 441.913 310.3C442.287 310.702 442.575 311.174 442.762 311.69C442.949 312.205 443.03 312.753 443 313.3Z" fill="#2E353A"/>
<path d="M103 309H79V327H103V309Z" fill="#004170"/>
<path d="M148 309H125V327H148V309Z" fill="#004170"/>
<path d="M194 309H170V327H194V309Z" fill="#004170"/>
<path d="M239 309H216V327H239V309Z" fill="#004170"/>
<path d="M284 309H261V327H284V309Z" fill="#004170"/>
<path d="M330 309H306V327H330V309Z" fill="#004170"/>
<path d="M375 309H352V327H375V309Z" fill="#004170"/>
<path d="M421 309H397V327H421V309Z" fill="#004170"/>
<g opacity="0.6">
<path d="M103 309H79V327H103V309Z" fill="white"/>
<path d="M148 309H125V327H148V309Z" fill="white"/>
<path d="M194 309H170V327H194V309Z" fill="white"/>
<path d="M239 309H216V327H239V309Z" fill="white"/>
<path d="M284 309H261V327H284V309Z" fill="white"/>
<path d="M330 309H306V327H330V309Z" fill="white"/>
<path d="M375 309H352V327H375V309Z" fill="white"/>
<path d="M421 309H397V327H421V309Z" fill="white"/>
</g>
<path opacity="0.1" d="M443 313.3V327H57.0001V313.3C56.9705 312.753 57.0514 312.205 57.2381 311.69C57.4248 311.174 57.7135 310.702 58.0868 310.3C58.4602 309.899 58.9105 309.577 59.4111 309.354C59.9116 309.13 60.4521 309.01 61.0001 309H439C439.548 309.01 440.089 309.13 440.589 309.354C441.09 309.577 441.54 309.899 441.913 310.3C442.287 310.702 442.575 311.174 442.762 311.69C442.949 312.205 443.03 312.753 443 313.3Z" fill="white"/>
<path d="M161 47.64V192.64C160.961 193.298 160.668 193.915 160.183 194.361C159.698 194.807 159.059 195.047 158.4 195.03H71.67C70.43 195.03 70 194.08 70 192.84V47.44C70 46.37 70.29 45 71.36 45H93C93.3203 45.0502 93.6206 45.1878 93.8676 45.3978C94.1147 45.6078 94.2989 45.8819 94.4 46.19L95.29 48.19C95.4131 48.4496 95.6142 48.6642 95.8652 48.8041C96.1161 48.9439 96.4045 49.0019 96.69 48.97H133.6C134.22 48.97 134.77 48.88 135 48.31L135.9 46.02C136.011 45.7374 136.201 45.4927 136.448 45.3154C136.694 45.138 136.987 45.0355 137.29 45.02H158.7C159.327 45.1236 159.899 45.4413 160.318 45.919C160.738 46.3966 160.978 47.0048 161 47.64Z" fill="#004170"/>
<path opacity="0.2" d="M161 47.64V192.64C160.961 193.298 160.668 193.915 160.183 194.361C159.698 194.807 159.059 195.047 158.4 195.03H71.67C70.43 195.03 70 194.08 70 192.84V47.44C70 46.37 70.29 45 71.36 45H93C93.3203 45.0502 93.6206 45.1878 93.8676 45.3978C94.1147 45.6078 94.2989 45.8819 94.4 46.19L95.29 48.19C95.4131 48.4496 95.6142 48.6642 95.8652 48.8041C96.1161 48.9439 96.4045 49.0019 96.69 48.97H133.6C134.22 48.97 134.77 48.88 135 48.31L135.9 46.02C136.011 45.7374 136.201 45.4927 136.448 45.3154C136.694 45.138 136.987 45.0355 137.29 45.02H158.7C159.327 45.1236 159.899 45.4413 160.318 45.919C160.738 46.3966 160.978 47.0048 161 47.64Z" fill="white"/>
<path opacity="0.4" d="M157.51 71.99H73.5098V175.99H157.51V71.99Z" fill="white"/>
<path d="M141 84.8001C140.483 84.2812 139.869 83.8695 139.193 83.5886C138.517 83.3077 137.792 83.1631 137.06 83.1631C136.328 83.1631 135.603 83.3077 134.927 83.5886C134.251 83.8695 133.637 84.2812 133.12 84.8001C132.601 85.3167 132.189 85.9307 131.908 86.6068C131.628 87.2829 131.483 88.0079 131.483 88.7401C131.483 89.4722 131.628 90.1972 131.908 90.8734C132.189 91.5495 132.601 92.1635 133.12 92.6801L137.06 96.6201L141 92.6801C142.043 91.6341 142.629 90.2172 142.629 88.7401C142.629 87.2629 142.043 85.8461 141 84.8001ZM139 90.6401C138.494 91.1439 137.809 91.4267 137.095 91.4267C136.381 91.4267 135.696 91.1439 135.19 90.6401C134.687 90.1358 134.404 89.4525 134.404 88.7401C134.404 88.0277 134.687 87.3444 135.19 86.8401C135.696 86.3363 136.381 86.0534 137.095 86.0534C137.809 86.0534 138.494 86.3363 139 86.8401C139.503 87.3444 139.786 88.0277 139.786 88.7401C139.786 89.4525 139.503 90.1358 139 90.6401Z" fill="#004170"/>
<path d="M88.9198 155.23C87.8738 154.187 86.457 153.601 84.9798 153.601C83.5027 153.601 82.0858 154.187 81.0398 155.23C79.9968 156.276 79.4111 157.693 79.4111 159.17C79.4111 160.647 79.9968 162.064 81.0398 163.11L84.9998 167.05L88.9398 163.11C89.4574 162.592 89.8675 161.977 90.1467 161.3C90.4259 160.623 90.5687 159.898 90.5668 159.166C90.565 158.434 90.4185 157.709 90.1359 157.034C89.8532 156.358 89.44 155.745 88.9198 155.23ZM86.9198 161.07C86.6715 161.322 86.3756 161.521 86.0495 161.658C85.7233 161.794 85.3733 161.864 85.0198 161.864C84.6663 161.864 84.3163 161.794 83.9902 161.658C83.664 161.521 83.3682 161.322 83.1198 161.07C82.6167 160.566 82.3341 159.882 82.3341 159.17C82.3341 158.458 82.6167 157.774 83.1198 157.27C83.6241 156.767 84.3074 156.484 85.0198 156.484C85.7322 156.484 86.4155 156.767 86.9198 157.27C87.4177 157.78 87.6932 158.466 87.6857 159.178C87.6782 159.891 87.3884 160.571 86.8798 161.07H86.9198Z" fill="#004170"/>
<path d="M145.44 72H140.33L145.69 97.86L120.35 104.16L113.69 72H108.57L115.49 105.37L88.6598 112L80.3698 72H75.2898L83.8898 113.24L73.5098 115.84V121L84.9998 118.13L90.1898 143.41L73.5498 147.57V152.73L91.2098 148.31L96.8198 176H101.93L95.9298 147.12L103.05 145.35C103.287 145.286 103.535 145.272 103.778 145.31C104.021 145.348 104.253 145.436 104.46 145.57C104.668 145.698 104.847 145.867 104.988 146.066C105.129 146.266 105.228 146.491 105.28 146.73L111.68 176H116.79L110.17 145.67C109.975 144.776 109.602 143.931 109.075 143.184C108.548 142.437 107.876 141.803 107.099 141.32C106.322 140.837 105.457 140.515 104.554 140.372C103.65 140.23 102.727 140.27 101.84 140.49L94.9098 142.22L89.6698 116.93L116.5 110.27L118.85 121.61C119.157 123.11 119.933 124.473 121.065 125.503C122.197 126.533 123.628 127.176 125.15 127.34L152.42 130.34L157.5 154.84V125.84L125.7 122.32C125.229 122.267 124.786 122.066 124.436 121.746C124.086 121.426 123.846 121.004 123.75 120.54L121.35 109L157.5 100V94.84L150.5 96.57L145.44 72Z" fill="#004170"/>
<path opacity="0.2" d="M161 107.65V192.36C160.997 193.059 160.718 193.729 160.224 194.224C159.729 194.718 159.059 194.997 158.36 195H142.67V114.15C142.67 112.426 143.355 110.773 144.574 109.554C145.793 108.335 147.446 107.65 149.17 107.65H161Z" fill="black"/>
<path d="M242 121.64V266.64C241.959 267.299 241.664 267.916 241.177 268.361C240.69 268.807 240.05 269.047 239.39 269.03H152.66C151.42 269.03 151 268.08 151 266.84V121.44C151 120.37 151.27 119 152.35 119H174C174.32 119.05 174.621 119.188 174.868 119.398C175.115 119.608 175.299 119.882 175.4 120.19L176.29 122.19C176.413 122.45 176.614 122.664 176.865 122.804C177.116 122.944 177.404 123.002 177.69 122.97H214.6C215.21 122.97 215.77 122.88 216 122.31L216.9 120.02C217.003 119.728 217.19 119.473 217.437 119.286C217.684 119.099 217.981 118.989 218.29 118.97H239.66C240.301 119.071 240.886 119.393 241.314 119.881C241.742 120.369 241.984 120.991 242 121.64Z" fill="#004170"/>
<path opacity="0.2" d="M242 121.64V266.64C241.959 267.299 241.664 267.916 241.177 268.361C240.69 268.807 240.05 269.047 239.39 269.03H152.66C151.42 269.03 151 268.08 151 266.84V121.44C151 120.37 151.27 119 152.35 119H174C174.32 119.05 174.621 119.188 174.868 119.398C175.115 119.608 175.299 119.882 175.4 120.19L176.29 122.19C176.413 122.45 176.614 122.664 176.865 122.804C177.116 122.944 177.404 123.002 177.69 122.97H214.6C215.21 122.97 215.77 122.88 216 122.31L216.9 120.02C217.003 119.728 217.19 119.473 217.437 119.286C217.684 119.099 217.981 118.989 218.29 118.97H239.66C240.301 119.071 240.886 119.393 241.314 119.881C241.742 120.369 241.984 120.991 242 121.64Z" fill="white"/>
<path opacity="0.4" d="M238.49 145.75H153.82V244.33H238.49V145.75Z" fill="white"/>
<path d="M221.15 217.11C221.15 220.55 209.96 223.34 196.15 223.34C182.34 223.34 171.15 220.55 171.15 217.11C171.15 213.67 182.34 210.89 196.15 210.89C209.96 210.89 221.15 213.67 221.15 217.11Z" fill="#004170"/>
<path opacity="0.2" d="M221.15 217.11C221.15 220.55 209.96 223.34 196.15 223.34C182.34 223.34 171.15 220.55 171.15 217.11C171.15 213.67 182.34 210.89 196.15 210.89C209.96 210.89 221.15 213.67 221.15 217.11Z" fill="black"/>
<path d="M209.57 173.66C206.008 170.106 201.182 168.11 196.15 168.11C191.118 168.11 186.292 170.106 182.73 173.66C179.179 177.222 177.185 182.046 177.185 187.075C177.185 192.104 179.179 196.929 182.73 200.49L196.15 213.91L209.57 200.49C213.121 196.929 215.115 192.104 215.115 187.075C215.115 182.046 213.121 177.222 209.57 173.66ZM202.63 193.55C201.779 194.408 200.766 195.088 199.65 195.552C198.535 196.017 197.338 196.256 196.13 196.256C194.922 196.256 193.725 196.017 192.61 195.552C191.494 195.088 190.481 194.408 189.63 193.55C188.771 192.699 188.09 191.687 187.625 190.571C187.159 189.456 186.92 188.259 186.92 187.05C186.92 185.841 187.159 184.645 187.625 183.529C188.09 182.413 188.771 181.401 189.63 180.55C190.481 179.693 191.494 179.012 192.61 178.548C193.725 178.083 194.922 177.844 196.13 177.844C197.338 177.844 198.535 178.083 199.65 178.548C200.766 179.012 201.779 179.693 202.63 180.55C203.489 181.401 204.17 182.413 204.635 183.529C205.101 184.645 205.34 185.841 205.34 187.05C205.34 188.259 205.101 189.456 204.635 190.571C204.17 191.687 203.489 192.699 202.63 193.55Z" fill="#004170"/>
<path opacity="0.2" d="M242 187.33V121.64C241.997 120.941 241.718 120.271 241.224 119.776C240.729 119.282 240.059 119.003 239.36 119H223.67V180.83C223.67 182.554 224.355 184.207 225.574 185.426C226.793 186.645 228.446 187.33 230.17 187.33H242Z" fill="black"/>
<path d="M321 17.64V162.64C321.037 162.938 321.01 163.241 320.921 163.528C320.833 163.815 320.684 164.08 320.486 164.306C320.288 164.532 320.044 164.713 319.771 164.838C319.497 164.962 319.201 165.028 318.9 165.03H232.17C231.882 165.034 231.597 164.98 231.33 164.871C231.064 164.762 230.822 164.601 230.619 164.396C230.417 164.192 230.258 163.949 230.151 163.681C230.045 163.414 229.993 163.128 230 162.84V17.44C230 16.37 230.79 15 231.86 15H253.54C253.861 15.0491 254.162 15.1863 254.409 15.3965C254.656 15.6066 254.84 15.8814 254.94 16.19L255.84 18.19C255.961 18.4488 256.161 18.6631 256.41 18.8029C256.659 18.9428 256.946 19.0012 257.23 18.97H294.15C294.76 18.97 295.31 18.88 295.54 18.31L296.44 16.02C296.553 15.7366 296.745 15.4916 296.993 15.3143C297.241 15.137 297.535 15.0348 297.84 15.02H319.21C320.39 15 321 16.45 321 17.64Z" fill="#004170"/>
<path opacity="0.2" d="M321 17.64V162.64C321.037 162.938 321.01 163.241 320.921 163.528C320.833 163.815 320.684 164.08 320.486 164.306C320.288 164.532 320.044 164.713 319.771 164.838C319.497 164.962 319.201 165.028 318.9 165.03H232.17C231.882 165.034 231.597 164.98 231.33 164.871C231.064 164.762 230.822 164.601 230.619 164.396C230.417 164.192 230.258 163.949 230.151 163.681C230.045 163.414 229.993 163.128 230 162.84V17.44C230 16.37 230.79 15 231.86 15H253.54C253.861 15.0491 254.162 15.1863 254.409 15.3965C254.656 15.6066 254.84 15.8814 254.94 16.19L255.84 18.19C255.961 18.4488 256.161 18.6631 256.41 18.8029C256.659 18.9428 256.946 19.0012 257.23 18.97H294.15C294.76 18.97 295.31 18.88 295.54 18.31L296.44 16.02C296.553 15.7366 296.745 15.4916 296.993 15.3143C297.241 15.137 297.535 15.0348 297.84 15.02H319.21C320.39 15 321 16.45 321 17.64Z" fill="white"/>
<path d="M275.11 118.5C293.474 118.5 308.36 103.613 308.36 85.25C308.36 66.8865 293.474 52 275.11 52C256.747 52 241.86 66.8865 241.86 85.25C241.86 103.613 256.747 118.5 275.11 118.5Z" fill="#004170"/>
<path opacity="0.4" d="M308.5 85.2501C308.5 91.8263 306.55 98.2548 302.896 103.723C299.243 109.191 294.05 113.452 287.974 115.969C281.899 118.486 275.213 119.144 268.763 117.861C262.313 116.578 256.389 113.411 251.739 108.761C247.089 104.111 243.922 98.1867 242.639 91.7368C241.356 85.2869 242.014 78.6015 244.531 72.5258C247.048 66.4502 251.309 61.2572 256.777 57.6037C262.245 53.9501 268.674 52.0001 275.25 52.0001C279.619 51.9921 283.946 52.8468 287.984 54.515C292.021 56.1831 295.69 58.632 298.779 61.7211C301.868 64.8102 304.317 68.4788 305.985 72.5165C307.653 76.5541 308.508 80.8814 308.5 85.2501Z" fill="white"/>
<path d="M280.25 74.7301H274.53L275.36 72.3601H279.42L280.25 74.7301Z" fill="#004170"/>
<path d="M301.14 95.9999H246.87L248.21 87.3299C248.297 86.757 248.569 86.2281 248.984 85.8238C249.399 85.4195 249.935 85.1618 250.51 85.0899L261.29 83.7099L267.8 76.2499C268.278 75.6943 268.93 75.3171 269.65 75.1799C272.19 74.7888 274.761 74.6248 277.33 74.6899C279.846 74.6488 282.36 74.8093 284.85 75.1699C285.85 75.3199 286.98 75.9199 286.98 76.7999C286.98 76.7999 287.05 76.8699 287.06 76.8999L290.06 83.2299L289.98 83.3199L290.61 83.7399L298.86 85.1599C299.223 85.2148 299.559 85.3857 299.816 85.6471C300.074 85.9085 300.24 86.2462 300.29 86.6099L301.14 95.9999Z" fill="#004170"/>
<path opacity="0.2" d="M301.14 95.9999H246.87L248.21 87.3299C248.297 86.757 248.569 86.2281 248.984 85.8238C249.399 85.4195 249.935 85.1618 250.51 85.0899L261.29 83.7099L267.8 76.2499C268.278 75.6943 268.93 75.3171 269.65 75.1799C272.19 74.7888 274.761 74.6248 277.33 74.6899C279.846 74.6488 282.36 74.8093 284.85 75.1699C285.85 75.3199 286.98 75.9199 286.98 76.7999C286.98 76.7999 287.05 76.8699 287.06 76.8999L290.06 83.2299L289.98 83.3199L290.61 83.7399L298.86 85.1599C299.223 85.2148 299.559 85.3857 299.816 85.6471C300.074 85.9085 300.24 86.2462 300.29 86.6099L301.14 95.9999Z" fill="black"/>
<path d="M262.09 96.2401C262.09 97.1661 261.815 98.0713 261.301 98.8412C260.786 99.611 260.054 100.211 259.199 100.565C258.343 100.919 257.401 101.011 256.493 100.829C255.585 100.648 254.751 100.201 254.097 99.5458C253.443 98.8903 252.998 98.0554 252.819 97.147C252.639 96.2385 252.733 95.2972 253.089 94.4422C253.445 93.5872 254.046 92.857 254.817 92.3439C255.588 91.8309 256.494 91.5581 257.42 91.5601C258.034 91.5601 258.642 91.6812 259.209 91.9165C259.777 92.1518 260.292 92.4967 260.726 92.9314C261.159 93.3661 261.503 93.8821 261.737 94.4499C261.971 95.0176 262.091 95.626 262.09 96.2401Z" fill="#2E353A"/>
<path d="M259.75 96.2399C259.75 96.7032 259.613 97.156 259.355 97.541C259.098 97.926 258.732 98.2259 258.303 98.4027C257.875 98.5796 257.404 98.6253 256.95 98.5342C256.496 98.4431 256.079 98.2193 255.752 97.891C255.425 97.5627 255.203 97.1449 255.114 96.6903C255.025 96.2357 255.073 95.7649 255.251 95.3375C255.43 94.9101 255.731 94.5453 256.118 94.2894C256.504 94.0335 256.957 93.8979 257.42 93.8999C257.727 93.8999 258.031 93.9605 258.314 94.0782C258.598 94.196 258.855 94.3685 259.071 94.5859C259.288 94.8033 259.459 95.0614 259.576 95.3452C259.692 95.629 259.752 95.9331 259.75 96.2399Z" fill="#004170"/>
<path d="M295.83 96.2401C295.828 97.1633 295.553 98.0652 295.038 98.8318C294.524 99.5985 293.794 100.196 292.94 100.547C292.087 100.899 291.148 100.99 290.243 100.809C289.338 100.628 288.507 100.182 287.855 99.5287C287.202 98.8752 286.759 98.0431 286.579 97.1375C286.4 96.2318 286.493 95.2934 286.847 94.4406C287.2 93.5879 287.799 92.8591 288.567 92.3464C289.335 91.8337 290.237 91.5601 291.16 91.5601C291.774 91.5601 292.382 91.6812 292.95 91.9165C293.517 92.1518 294.032 92.4967 294.466 92.9314C294.9 93.3661 295.244 93.8821 295.478 94.4499C295.712 95.0176 295.832 95.626 295.83 96.2401Z" fill="#2E353A"/>
<path d="M293.5 96.2399C293.5 96.7027 293.363 97.1552 293.106 97.54C292.849 97.9248 292.483 98.2247 292.056 98.4018C291.628 98.5789 291.158 98.6253 290.704 98.535C290.25 98.4447 289.833 98.2218 289.506 97.8946C289.178 97.5673 288.956 97.1504 288.865 96.6964C288.775 96.2425 288.821 95.772 288.998 95.3445C289.176 94.9169 289.475 94.5514 289.86 94.2943C290.245 94.0372 290.698 93.8999 291.16 93.8999C291.468 93.8986 291.773 93.9582 292.057 94.0754C292.342 94.1925 292.6 94.3648 292.818 94.5823C293.035 94.7999 293.208 95.0584 293.325 95.3429C293.442 95.6274 293.502 95.9323 293.5 96.2399Z" fill="#004170"/>
<path d="M251.54 93.8999H246.73C246.399 93.8999 246.13 94.1685 246.13 94.4999V95.9999C246.13 96.3313 246.399 96.5999 246.73 96.5999H251.54C251.871 96.5999 252.14 96.3313 252.14 95.9999V94.4999C252.14 94.1685 251.871 93.8999 251.54 93.8999Z" fill="#004170"/>
<path d="M300.91 93.8999H297.04C296.709 93.8999 296.44 94.1685 296.44 94.4999V95.9999C296.44 96.3313 296.709 96.5999 297.04 96.5999H300.91C301.241 96.5999 301.51 96.3313 301.51 95.9999V94.4999C301.51 94.1685 301.241 93.8999 300.91 93.8999Z" fill="#004170"/>
<path d="M249.88 90.9999C249.88 91.9999 249.51 92.8499 249.06 92.8499C248.61 92.8499 248.24 92.0199 248.24 90.9999C248.24 89.9799 248.6 89.1499 249.06 89.1499C249.52 89.1499 249.88 89.9999 249.88 90.9999Z" fill="#004170"/>
<path d="M300.45 93.1699H298.98V89.1299H300.11L300.45 93.1699Z" fill="#004170"/>
<path d="M251.6 87.55H250.02V89.1301H251.6V87.55Z" fill="#004170"/>
<path d="M253.18 89.1299H251.6V90.7099H253.18V89.1299Z" fill="#004170"/>
<path d="M254.76 87.55H253.18V89.1301H254.76V87.55Z" fill="#004170"/>
<path d="M256.33 89.1299H254.75V90.7099H256.33V89.1299Z" fill="#004170"/>
<path d="M257.91 87.55H256.33V89.1301H257.91V87.55Z" fill="#004170"/>
<path d="M259.48 89.1299H257.9V90.7099H259.48V89.1299Z" fill="#004170"/>
<path d="M261.06 87.55H259.48V89.1301H261.06V87.55Z" fill="#004170"/>
<path d="M262.64 89.1299H261.06V90.7099H262.64V89.1299Z" fill="#004170"/>
<path d="M264.21 87.55H262.63V89.1301H264.21V87.55Z" fill="#004170"/>
<path d="M265.79 89.1299H264.21V90.7099H265.79V89.1299Z" fill="#004170"/>
<path d="M267.36 87.55H265.78V89.1301H267.36V87.55Z" fill="#004170"/>
<path d="M268.94 89.1299H267.36V90.7099H268.94V89.1299Z" fill="#004170"/>
<path d="M270.52 87.55H268.94V89.1301H270.52V87.55Z" fill="#004170"/>
<path d="M272.09 89.1299H270.51V90.7099H272.09V89.1299Z" fill="#004170"/>
<path d="M273.67 87.55H272.09V89.1301H273.67V87.55Z" fill="#004170"/>
<path d="M275.24 89.1299H273.66V90.7099H275.24V89.1299Z" fill="#004170"/>
<path d="M276.82 87.55H275.24V89.1301H276.82V87.55Z" fill="#004170"/>
<path d="M278.4 89.1299H276.82V90.7099H278.4V89.1299Z" fill="#004170"/>
<path d="M279.97 87.55H278.39V89.1301H279.97V87.55Z" fill="#004170"/>
<path d="M281.55 89.1299H279.97V90.7099H281.55V89.1299Z" fill="#004170"/>
<path d="M283.12 87.55H281.54V89.1301H283.12V87.55Z" fill="#004170"/>
<path d="M284.7 89.1299H283.12V90.7099H284.7V89.1299Z" fill="#004170"/>
<path d="M286.28 87.55H284.7V89.1301H286.28V87.55Z" fill="#004170"/>
<path d="M287.85 89.1299H286.27V90.7099H287.85V89.1299Z" fill="#004170"/>
<path d="M289.43 87.55H287.85V89.1301H289.43V87.55Z" fill="#004170"/>
<path d="M291 89.1299H289.42V90.7099H291V89.1299Z" fill="#004170"/>
<path d="M292.58 87.55H291V89.1301H292.58V87.55Z" fill="#004170"/>
<path d="M294.16 89.1299H292.58V90.7099H294.16V89.1299Z" fill="#004170"/>
<path d="M295.73 87.55H294.15V89.1301H295.73V87.55Z" fill="#004170"/>
<path d="M297.31 89.1299H295.73V90.7099H297.31V89.1299Z" fill="#004170"/>
<path d="M298.89 87.55H297.31V89.1301H298.89V87.55Z" fill="#004170"/>
<path d="M278 82.8901V76.3101L283.42 76.4101C283.742 76.4144 284.057 76.5109 284.326 76.688C284.595 76.8652 284.808 77.1158 284.94 77.4101L287.41 82.8901H278Z" fill="#004170"/>
<path d="M264.89 82.8899L269.4 77.3499C269.664 77.0318 269.996 76.7769 270.372 76.6039C270.747 76.4308 271.157 76.3441 271.57 76.3499H276.33V82.9299L264.89 82.8899Z" fill="#004170"/>
<path d="M268.93 76.31L263.42 83.21C263.42 83.21 263.42 83.44 261.29 83.72L267.8 76.25L268.93 76.31Z" fill="#004170"/>
<path d="M290.41 83.2099L288.96 82.8899L285.68 76.6299C286.123 76.645 286.565 76.6952 287 76.7799C287 76.7799 287.07 76.8499 287.08 76.8799L290.41 83.2099Z" fill="#004170"/>
<path opacity="0.2" d="M249.88 90.9999C249.88 91.9999 249.51 92.8499 249.06 92.8499C248.61 92.8499 248.24 92.0199 248.24 90.9999C248.24 89.9799 248.6 89.1499 249.06 89.1499C249.52 89.1499 249.88 89.9999 249.88 90.9999Z" fill="white"/>
<path opacity="0.2" d="M300.45 93.1699H298.98V89.1299H300.11L300.45 93.1699Z" fill="white"/>
<path d="M304.59 101C298.99 111 287.95 118.59 275.25 118.59C262.55 118.59 251.51 111 245.91 101H304.59Z" fill="#004170"/>
<path d="M281.67 66.9999H274.23C273.882 66.9999 273.549 66.8619 273.304 66.6162C273.058 66.3705 272.92 66.0373 272.92 65.6899C272.92 65.3425 273.058 65.0092 273.304 64.7636C273.549 64.5179 273.882 64.3799 274.23 64.3799H281.67C282.017 64.3799 282.351 64.5179 282.596 64.7636C282.842 65.0092 282.98 65.3425 282.98 65.6899C282.98 66.0373 282.842 66.3705 282.596 66.6162C282.351 66.8619 282.017 66.9999 281.67 66.9999Z" fill="#004170"/>
<path d="M279.67 64.3801C279.67 64.8884 279.52 65.3852 279.237 65.8079C278.955 66.2305 278.553 66.5599 278.084 66.7544C277.614 66.9489 277.097 66.9998 276.599 66.9007C276.1 66.8015 275.642 66.5567 275.283 66.1973C274.924 65.8379 274.679 65.38 274.58 64.8814C274.48 64.3829 274.531 63.8662 274.726 63.3966C274.92 62.927 275.25 62.5256 275.672 62.2432C276.095 61.9608 276.592 61.8101 277.1 61.8101C277.782 61.8101 278.436 62.0808 278.918 62.5628C279.4 63.0448 279.67 63.6985 279.67 64.3801Z" fill="#004170"/>
<path d="M279.4 65.86C280.19 65.86 280.83 65.2198 280.83 64.43C280.83 63.6402 280.19 63 279.4 63C278.61 63 277.97 63.6402 277.97 64.43C277.97 65.2198 278.61 65.86 279.4 65.86Z" fill="#004170"/>
<path d="M299.47 77.3301H293.9C293.635 77.3301 293.38 77.2247 293.193 77.0372C293.005 76.8496 292.9 76.5953 292.9 76.3301C292.9 76.0649 293.005 75.8105 293.193 75.623C293.38 75.4354 293.635 75.3301 293.9 75.3301H299.47C299.735 75.3301 299.989 75.4354 300.177 75.623C300.365 75.8105 300.47 76.0649 300.47 76.3301C300.47 76.5953 300.365 76.8496 300.177 77.0372C299.989 77.2247 299.735 77.3301 299.47 77.3301Z" fill="#004170"/>
<path d="M296.05 77.2799C297.11 77.2799 297.97 76.4203 297.97 75.3599C297.97 74.2996 297.11 73.4399 296.05 73.4399C294.989 73.4399 294.13 74.2996 294.13 75.3599C294.13 76.4203 294.989 77.2799 296.05 77.2799Z" fill="#004170"/>
<path d="M297.77 76.4701C298.361 76.4701 298.84 75.991 298.84 75.4001C298.84 74.8091 298.361 74.3301 297.77 74.3301C297.179 74.3301 296.7 74.8091 296.7 75.4001C296.7 75.991 297.179 76.4701 297.77 76.4701Z" fill="#004170"/>
<path d="M256.45 76.93H249C248.653 76.93 248.319 76.792 248.074 76.5464C247.828 76.3007 247.69 75.9675 247.69 75.62C247.69 75.2717 247.828 74.9374 248.073 74.6902C248.318 74.4429 248.652 74.3027 249 74.3H256.45C256.798 74.3027 257.131 74.4429 257.377 74.6902C257.622 74.9374 257.76 75.2717 257.76 75.62C257.76 75.7921 257.726 75.9624 257.66 76.1214C257.594 76.2803 257.498 76.4247 257.376 76.5464C257.255 76.668 257.11 76.7645 256.951 76.8303C256.792 76.8962 256.622 76.93 256.45 76.93Z" fill="#004170"/>
<path d="M251.88 76.87C253.299 76.87 254.45 75.7194 254.45 74.3C254.45 72.8806 253.299 71.73 251.88 71.73C250.461 71.73 249.31 72.8806 249.31 74.3C249.31 75.7194 250.461 76.87 251.88 76.87Z" fill="#004170"/>
<path d="M254.18 75.7799C254.97 75.7799 255.61 75.1397 255.61 74.3499C255.61 73.5602 254.97 72.9199 254.18 72.9199C253.39 72.9199 252.75 73.5602 252.75 74.3499C252.75 75.1397 253.39 75.7799 254.18 75.7799Z" fill="#004170"/>
<path d="M396 203.17C395.81 207.17 369.29 213.5 365.88 211.5C362.47 209.5 365.88 182.5 365.88 182.5L386.31 178.33C386.69 179.1 396.21 199.24 396 203.17Z" fill="#2E353A"/>
<path d="M390.5 181.5C385.08 184.9 378.15 179.03 373.03 173.07C370.418 170.002 368.035 166.747 365.9 163.33L371.82 154.57L380 163.14L381.5 164.45L380.5 162.65L374.16 152.65L380.94 133C380.94 133 400.33 175.33 390.5 181.5Z" fill="#DA291C"/>
<path opacity="0.2" d="M371.82 154.57L380 163.14C379 167.67 376.55 171.38 372.82 173.06C370.208 169.992 367.825 166.736 365.69 163.32L371.82 154.57Z" fill="black"/>
<path opacity="0.2" d="M380.56 162.66L374.17 152.66L381 133C381 133 384 150.52 380.56 162.66Z" fill="black"/>
<path d="M293.78 141.88L284.1 139.88C284.1 139.88 280.72 136.63 279.5 135.66C278.28 134.69 273.8 133.16 273.04 133.57C272.28 133.98 276.46 135.93 276.46 135.93C276.46 135.93 274.46 140.23 274.85 141.54C275.24 142.85 281.15 144.54 281.69 144.32L291.47 148.06L293.78 141.88Z" fill="#EBB376"/>
<path d="M290.75 140.44L286.21 139.76L284.15 145.94L287.94 147.5L290.75 140.44Z" fill="#004170"/>
<path opacity="0.6" d="M290.75 140.44L286.21 139.76L284.15 145.94L287.94 147.5L290.75 140.44Z" fill="white"/>
<path d="M397.33 349.15L390.67 350.32L387.94 341.24L385.45 332.9L393.13 330.22L395.36 340.24L397.33 349.15Z" fill="#E4897B"/>
<path opacity="0.2" d="M395.39 340.44L387.97 341.42L385.46 333L393.13 330.27L395.39 340.44Z" fill="black"/>
<path d="M352.86 352H346.1L344.99 342.58L343.98 333.94L352.01 332.63L352.47 342.89L352.86 352Z" fill="#E4897B"/>
<path opacity="0.2" d="M352.47 343.1L344.99 342.77L343.98 334.03L352.01 332.68L352.47 343.1Z" fill="black"/>
<path d="M396 335.16L385.05 337.09C374 309.56 366.14 286.58 360.59 267.51C357.59 257.22 355.27 248.07 353.48 239.95L353.98 269.95V338H342.88C315.83 209 335 179.52 335 179.52L367.36 174C368.64 179.974 369.546 186.023 370.07 192.11L371.53 202.81L384.18 268.13L396 335.16Z" fill="#6BB7BF"/>
<path d="M383.35 335.74L396.94 331.23L396.75 337.01L385.52 340.59L383.35 335.74Z" fill="#004170"/>
<path opacity="0.6" d="M383.35 335.74L396.94 331.23L396.75 337.01L385.52 340.59L383.35 335.74Z" fill="white"/>
<path d="M341.43 336.37L355.59 334.29L354.4 339.95L342.72 341.52L341.43 336.37Z" fill="#004170"/>
<path opacity="0.6" d="M341.43 336.37L355.59 334.29L354.4 339.95L342.72 341.52L341.43 336.37Z" fill="white"/>
<path opacity="0.2" d="M362.1 272.55L360.6 267.55C357.89 258.21 356 249.81 354 242.27L352.85 228.39C352.85 228.39 359.76 213.14 357.17 202.39C357.41 203 361.98 214.69 360.17 226.39C359.763 241.803 360.408 257.225 362.1 272.55Z" fill="black"/>
<path opacity="0.2" d="M370.51 195.32L330.14 197.05C332.14 183.98 335 179.52 335 179.52L367.36 174C368.641 179.974 369.546 186.023 370.07 192.11L370.51 195.32Z" fill="black"/>
<path d="M366.1 118.35C366.02 118.422 365.933 118.486 365.84 118.54C364.595 119.491 363.175 120.188 361.66 120.59C357.24 121.59 354.22 121 352.25 119C349.49 116 348.8 110.69 349.19 104.27C349.257 101.718 349.73 99.1933 350.59 96.79C350.59 96.79 350.59 96.69 350.59 96.67C350.59 96.65 350.66 96.48 350.7 96.4C351.242 95.0442 352.113 93.8453 353.236 92.9126C354.36 91.9799 355.698 91.3431 357.13 91.06C358.375 90.7845 359.646 90.6437 360.92 90.64C373.43 90.51 375.68 111.21 366.1 118.35Z" fill="#EBB376"/>
<path opacity="0.2" d="M365.84 118.54C364.585 119.435 363.164 120.07 361.66 120.41C357.24 121.41 354.22 120.68 352.25 118.65C354.893 119.306 357.679 119.077 360.18 118C362 117.18 364 117.6 365.84 118.54Z" fill="black"/>
<path d="M367.11 129.83C367.88 133.39 363.27 134.83 363.27 134.83C355.73 131.61 354.33 127.6 354.33 127.6C360.62 124.32 358.8 115.04 358.8 115.04L360.08 115.67L369.08 117.43C369.08 117.43 366.59 122.21 366.26 123.3C364.54 129 367.11 129.83 367.11 129.83Z" fill="#EBB376"/>
<path d="M350.57 96.6999C350.57 96.6999 349.89 105.47 358.19 109.24C358.19 109.24 361.76 118.34 367.01 118.47C374.17 118.65 380.48 108.47 378.01 98.0799C374.78 84.6299 354.4 83.5299 350.57 96.6999Z" fill="#2E353A"/>
<path d="M364.56 86.4999C364.56 86.4999 350.94 82.7499 349.08 92.2499C346.5 105.43 356.92 106.84 356.92 106.84C356.92 106.84 358.05 117.84 354.01 121.79C354.01 121.79 363.33 128.32 378.55 123.29C388.5 120 379.17 104.5 379.17 104.5C379.17 104.5 384.67 84.1699 364.56 86.4999Z" fill="#004170"/>
<path d="M354 106.72C354 105.35 355.1 103.05 357.22 103.37C359.34 103.69 360.64 109.11 355.22 110.32C354.45 110.5 354 109.57 354 106.72Z" fill="#EBB376"/>
<path d="M355.4 87.3898C355.4 87.3898 348.67 85.6698 346.83 93.9998C344.99 102.33 351.12 105.48 351.12 105.48" stroke="#2E353A" stroke-width="0.5" stroke-linecap="round" stroke-linejoin="round"/>
<path d="M350.56 126.6C350.56 126.6 357.85 122.67 365.84 125.42C373.83 128.17 372 133.5 372 133.5L350.56 126.6Z" fill="#004170"/>
<path opacity="0.5" d="M350.56 126.6C350.56 126.6 357.85 122.67 365.84 125.42C373.83 128.17 372 133.5 372 133.5L350.56 126.6Z" fill="#B8160A"/>
<path d="M381 133C381 133 374.09 130.29 367.9 128.59C363.068 127.377 358.156 126.511 353.2 126C348.527 125.473 343.821 125.286 339.12 125.44C339.26 127.7 339.35 129.84 339.44 131.85C339.56 134.5 339.64 136.96 339.7 139.24C339.81 143.52 339.8 147.18 339.7 150.44C339.53 157.53 338.673 164.586 337.14 171.51L330.14 188.51L372 193.83L369.62 177.16C376.62 156.94 379.54 146.29 380.62 140.25C381.92 133.52 381 133 381 133Z" fill="#DA291C"/>
<path d="M339.12 125.47C341.482 130.85 341.711 136.927 339.76 142.47C339.76 142.47 317 158.75 310.5 157.5C304 156.25 286.5 148.17 286.5 148.17L289.25 139.96C289.25 139.96 309.5 143.96 311.25 144.75C313 145.54 339.12 125.47 339.12 125.47Z" fill="#DA291C"/>
<path d="M376.4 131.3C376.4 131.3 386.17 161.19 388.5 185.93L385.31 185.52C385.31 185.52 380.76 144.87 374.91 131.15L376.4 131.3Z" fill="#2E353A"/>
<path opacity="0.2" d="M376.4 131.3C376.4 131.3 386.17 161.19 388.5 185.93L385.31 185.52C385.31 185.52 380.76 144.87 374.91 131.15L376.4 131.3Z" fill="black"/>
<path d="M386.34 178.35L373.17 181L377.5 210.65C385.99 208.9 395.9 205.59 396.02 203.15C396.21 199.24 386.69 179.1 386.34 178.35Z" fill="#2E353A"/>
<path opacity="0.1" d="M396 203.17C394 204.6 390.34 207 387 203.83C383.66 200.66 386.33 178.33 386.33 178.33C386.69 179.1 396.21 199.24 396 203.17Z" fill="white"/>
<path d="M380.21 184C380.21 184 378.12 137.39 373.56 130.57L374.91 131.15C374.91 131.15 381.32 138.5 383.14 184H380.21Z" fill="#2E353A"/>
<path d="M335.6 366.73C336.619 365.909 337.777 365.278 339.02 364.87C339.02 364.87 342.74 361.18 344.53 350.07L349.4 348.81C350.226 348.608 351.093 348.665 351.886 348.973C352.678 349.281 353.357 349.824 353.83 350.53C353.961 350.729 354.066 350.944 354.14 351.17C354.388 352.361 354.561 353.567 354.66 354.78C355.15 358.55 354.73 366.99 354.73 366.99H353.85L353.5 359.33C353.37 356.73 351.38 359.77 350.81 362.58C350.24 365.39 349.03 368.35 343.33 368.5C336.68 368.62 333.92 368.36 335.6 366.73Z" fill="#2E353A"/>
<path d="M354 350.62C354.32 348.02 354.42 343.5 354.42 343.5L343.6 344.7C343.6 344.7 344.91 349.84 343.83 353.7C349.28 352.27 354 350.62 354 350.62Z" fill="#2E353A"/>
<path d="M379.63 366.73C380.647 365.907 381.806 365.276 383.05 364.87C383.05 364.87 386.77 361.18 388.56 350.07L393.43 348.81C394.256 348.608 395.124 348.665 395.916 348.973C396.708 349.281 397.387 349.824 397.86 350.53C397.991 350.729 398.096 350.944 398.17 351.17C398.418 352.361 398.591 353.567 398.69 354.78C399.18 358.55 398.76 366.99 398.76 366.99H397.88L397.53 359.33C397.4 356.73 395.41 359.77 394.84 362.58C394.27 365.39 393.06 368.35 387.36 368.5C380.71 368.62 378 368.36 379.63 366.73Z" fill="#2E353A"/>
<path d="M398 350.62C398.32 348.02 398.42 343.5 398.42 343.5L387.6 344.7C387.6 344.7 388.91 349.84 387.83 353.7C393.31 352.27 398 350.62 398 350.62Z" fill="#2E353A"/>
</svg>
