<svg width="525" height="244" viewBox="0 0 525 244" fill="none" xmlns="http://www.w3.org/2000/svg">
<path d="M92.5317 206.1H489.646L473.522 146.607H92.5317V206.1Z" fill="#1C2948"/>
<path d="M387.469 133.225C381.519 133 375.332 132.885 368.907 132.88C368.907 132.88 333.332 102.045 292.174 91.5295C334.474 101.982 387.469 133.225 387.469 133.225Z" fill="#004170"/>
<path d="M65.319 156.368V122.322C65.319 122.322 105.3 117.758 129.474 109.01C185.451 88.4656 215.534 88.0852 266.372 88.0852C304.963 88.0852 344.056 113.905 360.644 126.344C366.241 130.526 373.009 132.854 379.997 132.999C441.057 134.338 478.796 146.515 497.542 154.734C501.84 156.624 505.494 159.723 508.058 163.652C510.622 167.582 511.985 172.173 511.98 176.864V188.323C512.586 188.323 513.167 188.564 513.596 188.992C514.024 189.419 514.265 190 514.265 190.605V209.622C514.265 210.227 514.024 210.807 513.596 211.235C513.167 211.663 512.586 211.904 511.98 211.904H475.553C479.187 205.389 481.053 198.039 480.968 190.581C480.883 183.124 478.848 175.818 475.067 169.388C471.285 162.958 465.887 157.626 459.408 153.922C452.929 150.218 445.593 148.269 438.128 148.269C430.663 148.269 423.327 150.218 416.848 153.922C410.368 157.626 404.971 162.958 401.189 169.388C397.407 175.818 395.373 183.124 395.288 190.581C395.202 198.039 397.069 205.389 400.703 211.904H176.554C180.188 205.389 182.055 198.039 181.969 190.581C181.884 183.124 179.85 175.818 176.068 169.388C172.286 162.958 166.888 157.626 160.409 153.922C153.93 150.218 146.594 148.269 139.129 148.269C131.664 148.269 124.328 150.218 117.849 153.922C111.37 157.626 105.972 162.958 102.19 169.388C98.4085 175.818 96.3743 183.124 96.289 190.581C96.2037 198.039 98.0704 205.389 101.704 211.904H92.7506C61.7728 211.904 57.3806 180.259 57.0916 164.715C57.0767 163.625 57.2783 162.543 57.6849 161.532C58.0915 160.521 58.695 159.601 59.4603 158.825C60.2256 158.048 61.1375 157.431 62.1432 157.01C63.1489 156.588 64.2283 156.37 65.319 156.368Z" fill="#F1A34F"/>
<path d="M285.999 94.2339C321.369 103.172 359.319 133.739 359.319 133.739L258.941 131.591C257.006 131.556 255.12 130.977 253.499 129.921C251.878 128.865 250.587 127.373 249.776 125.618L234.364 92.4591H271.581C276.442 92.4509 281.285 93.0471 285.999 94.2339Z" fill="#004170"/>
<path d="M228.484 93.2197L242.584 125.477C242.834 126.049 242.937 126.673 242.884 127.295C242.831 127.916 242.624 128.514 242.282 129.035C241.94 129.557 241.473 129.985 240.924 130.281C240.375 130.577 239.761 130.732 239.137 130.731C224.917 130.731 187.58 130.21 166.084 124.829C164.909 124.534 163.834 123.93 162.971 123.08C162.108 122.23 161.489 121.165 161.177 119.995C160.866 118.824 160.873 117.592 161.2 116.426C161.526 115.26 162.158 114.202 163.032 113.363C171.767 104.996 190.759 93.2197 228.484 93.2197Z" fill="#004170"/>
<path d="M509.372 165.926H494.708C494.708 165.926 470.737 143.564 432.237 137.225C432.237 137.225 503.337 145.057 509.372 165.926Z" fill="#DA291C"/>
<path d="M65.3184 156.368H69.2029C70.2676 156.369 71.3107 156.068 72.2114 155.501C73.1122 154.934 73.8339 154.124 74.293 153.164C76.5349 148.417 81.4629 139.409 89.0205 133.006C89.6636 132.461 90.1238 131.732 90.3392 130.917C90.5546 130.103 90.5148 129.242 90.2251 128.45C89.9355 127.659 89.4099 126.975 88.7192 126.491C88.0286 126.008 87.2061 125.747 86.3627 125.745H65.3184V156.368Z" fill="#B64C41"/>
<path d="M257.855 141.057H277.369C277.886 141.057 278.382 140.852 278.748 140.488C279.114 140.124 279.32 139.629 279.322 139.113C279.322 138.596 279.116 138.099 278.75 137.734C278.384 137.368 277.887 137.162 277.369 137.162H257.855C257.337 137.162 256.84 137.368 256.474 137.734C256.108 138.099 255.902 138.596 255.902 139.113C255.904 139.629 256.11 140.124 256.476 140.488C256.842 140.852 257.338 141.057 257.855 141.057Z" fill="#004170"/>
<path d="M171.619 141.057H191.133C191.649 141.057 192.144 140.852 192.509 140.488C192.874 140.123 193.079 139.629 193.079 139.113C193.08 138.857 193.03 138.604 192.933 138.367C192.835 138.13 192.692 137.915 192.512 137.734C192.331 137.553 192.116 137.409 191.879 137.311C191.643 137.213 191.389 137.162 191.133 137.162H171.619C171.363 137.162 171.109 137.213 170.872 137.311C170.636 137.409 170.421 137.553 170.24 137.734C170.06 137.915 169.916 138.13 169.819 138.367C169.722 138.604 169.672 138.857 169.673 139.113C169.673 139.629 169.878 140.123 170.243 140.488C170.608 140.852 171.103 141.057 171.619 141.057Z" fill="#004170"/>
<path d="M188.123 153.706H364.021C365.677 153.706 367.303 154.147 368.732 154.982C370.161 155.817 371.341 157.018 372.152 158.46C372.963 159.902 373.376 161.533 373.347 163.187C373.318 164.841 372.849 166.457 371.988 167.87L360.658 186.471C360.076 187.429 359.302 188.256 358.385 188.902C357.468 189.547 356.427 189.997 355.328 190.223C354.23 190.449 353.096 190.447 351.998 190.215C350.9 189.984 349.862 189.53 348.948 188.88C333.91 178.16 290.588 155.939 188.123 153.706Z" fill="#DD7F30"/>
<path d="M252.32 71.7524H261.344C261.919 71.7559 262.478 71.9345 262.948 72.2643C263.418 72.594 263.776 73.0593 263.974 73.5977L269.29 88.3883H249.55V74.5415C249.557 73.8077 249.851 73.1056 250.368 72.5848C250.886 72.0639 251.586 71.7652 252.32 71.7524Z" fill="#F1A34F"/>
<path d="M249.521 88.1347V78.0278H253.399C254.701 78.0318 255.971 78.4361 257.036 79.1858C258.1 79.9355 258.908 80.9943 259.349 82.2185L261.464 88.1347H249.521Z" fill="#004170"/>
<path d="M303.764 158.714H290.412V172.054H303.764V158.714Z" fill="#004170"/>
<path d="M290.411 172.046H277.059V185.386H290.411V172.046Z" fill="#004170"/>
<path d="M277.059 158.714H263.706V172.054H277.059V158.714Z" fill="#004170"/>
<path d="M263.713 172.046H250.36V185.386H263.713V172.046Z" fill="#004170"/>
<path d="M250.361 158.714H237.008V172.054H250.361V158.714Z" fill="#004170"/>
<path d="M157.356 223.553C175.192 213.299 181.329 190.543 171.065 172.725C160.801 154.907 138.022 148.775 120.187 159.029C102.352 169.283 96.2142 192.04 106.478 209.858C116.742 227.676 139.521 233.807 157.356 223.553Z" fill="#004170"/>
<path d="M138.759 168.243C143.326 168.242 147.791 169.594 151.589 172.128C155.387 174.662 158.348 178.264 160.096 182.479C161.844 186.694 162.302 191.333 161.412 195.808C160.521 200.283 158.322 204.394 155.092 207.62C151.863 210.846 147.748 213.043 143.269 213.933C138.789 214.823 134.146 214.366 129.927 212.619C125.708 210.872 122.102 207.915 119.565 204.12C117.029 200.326 115.676 195.865 115.677 191.303C115.677 185.187 118.109 179.322 122.438 174.997C126.766 170.673 132.637 168.243 138.759 168.243ZM135.601 170.772C130.683 171.531 126.202 174.031 122.974 177.815L130.976 182.745C132.301 181.55 133.883 180.675 135.601 180.189V170.772ZM141.946 170.772V180.167C143.663 180.654 145.245 181.529 146.57 182.724L154.565 177.794C151.333 174.012 146.846 171.52 141.924 170.772H141.946ZM157.956 199.36C159.033 196.794 159.584 194.038 159.576 191.256C159.569 188.474 159.004 185.721 157.914 183.161L149.919 188.091C150.217 189.136 150.369 190.216 150.37 191.303C150.372 192.355 150.229 193.402 149.947 194.416L157.956 199.36ZM141.946 211.84C146.894 211.079 151.4 208.558 154.636 204.741L146.648 199.811C145.311 201.047 143.699 201.95 141.946 202.445V211.84ZM144.061 191.303C144.061 190.266 143.753 189.253 143.177 188.391C142.6 187.53 141.781 186.858 140.823 186.461C139.864 186.065 138.81 185.961 137.792 186.163C136.775 186.365 135.84 186.865 135.107 187.597C134.373 188.33 133.873 189.264 133.671 190.28C133.469 191.297 133.572 192.35 133.969 193.308C134.366 194.265 135.039 195.084 135.901 195.66C136.764 196.235 137.778 196.543 138.815 196.543C140.197 196.528 141.516 195.969 142.488 194.988C143.459 194.007 144.004 192.683 144.004 191.303H144.061ZM135.657 211.84V202.445C133.903 201.95 132.292 201.047 130.955 199.811L122.96 204.741C126.184 208.546 130.671 211.066 135.601 211.84H135.657ZM127.655 194.416C127.061 192.345 127.061 190.148 127.655 188.077L119.661 183.147C118.571 185.707 118.005 188.46 117.998 191.242C117.991 194.024 118.542 196.78 119.618 199.346L127.655 194.416Z" fill="#98BDF4"/>
<path d="M464.439 217.679C478.99 203.143 478.99 179.574 464.439 165.038C449.888 150.502 426.297 150.502 411.746 165.038C397.196 179.575 397.196 203.143 411.746 217.679C426.297 232.216 449.888 232.216 464.439 217.679Z" fill="#004170"/>
<path d="M438.11 168.3C442.677 168.298 447.142 169.65 450.94 172.184C454.738 174.718 457.699 178.32 459.447 182.536C461.196 186.751 461.653 191.389 460.763 195.864C459.872 200.339 457.673 204.45 454.443 207.676C451.214 210.902 447.099 213.099 442.62 213.989C438.14 214.879 433.497 214.422 429.278 212.675C425.059 210.928 421.453 207.971 418.917 204.176C416.38 200.382 415.027 195.921 415.028 191.359C415.028 185.243 417.46 179.378 421.789 175.053C426.117 170.729 431.988 168.3 438.11 168.3ZM434.952 170.828C430.034 171.587 425.552 174.087 422.325 177.871L430.327 182.801C431.65 181.604 433.233 180.729 434.952 180.245V170.828ZM441.297 170.828V180.224C443.015 180.708 444.598 181.583 445.922 182.78L453.923 177.85C450.682 174.065 446.185 171.572 441.254 170.828H441.297ZM457.307 199.416C458.384 196.85 458.935 194.095 458.927 191.312C458.92 188.53 458.355 185.777 457.265 183.217L449.27 188.147C449.864 190.218 449.864 192.415 449.27 194.486L457.307 199.416ZM441.254 211.897C446.202 211.135 450.709 208.614 453.944 204.797L445.957 199.867C444.62 201.106 443.009 202.011 441.254 202.508V211.897ZM443.334 191.359C443.334 190.322 443.027 189.309 442.45 188.448C441.874 187.586 441.055 186.914 440.096 186.518C439.138 186.121 438.083 186.017 437.066 186.219C436.048 186.422 435.114 186.921 434.38 187.653C433.646 188.386 433.147 189.32 432.945 190.336C432.742 191.353 432.846 192.407 433.243 193.364C433.64 194.322 434.312 195.14 435.175 195.716C436.037 196.292 437.052 196.599 438.089 196.599C439.48 196.599 440.814 196.047 441.798 195.064C442.782 194.081 443.334 192.749 443.334 191.359ZM434.931 211.897V202.501C433.176 202.004 431.565 201.099 430.228 199.86L422.24 204.79C425.475 208.609 429.981 211.133 434.931 211.897ZM426.929 194.472C426.335 192.401 426.335 190.204 426.929 188.133L418.934 183.203C417.844 185.763 417.279 188.516 417.272 191.298C417.264 194.08 417.815 196.836 418.892 199.402L426.929 194.472Z" fill="#98BDF4"/>
<path d="M155.241 33.2263V34.7194C155.241 34.7194 155.649 39.3749 149.904 40.0581C144.158 40.7413 139.456 40.6497 139.611 37.0507C140.132 34.2334 141.021 29.9512 141.098 27.6481C141.11 26.7049 141.042 25.7624 140.894 24.8309L152.019 24.6055L155.29 25.1408L155.241 33.2263Z" fill="#FFB27D"/>
<path d="M155.283 25.1689L155.241 33.2263C153.988 33.8142 152.62 34.1172 151.236 34.1137C146.118 34.1137 142.818 30.3668 141.091 27.6481C141.103 26.7049 141.035 25.7624 140.887 24.8309L152.012 24.6055L155.283 25.1689Z" fill="#E2915A"/>
<path d="M140.033 23.0699C141.324 30.0074 150.284 29.7821 154.133 29.3454C155.219 29.2256 155.91 29.0848 155.91 29.0848C157.137 28.7608 157.821 26.8239 158.138 24.2884C158.772 19.2737 157.976 11.9136 157.13 10.0331C155.854 7.21583 153.45 4.13798 144.44 6.34952C135.43 8.56107 138.377 14.1745 140.033 23.0699Z" fill="#FFB27D"/>
<path d="M132.694 228.554H145.384C145.166 227.011 144.827 225.487 144.369 223.997C144.183 223.371 143.947 222.761 143.664 222.173C142.43 219.708 134.584 221.271 134.584 221.271C134.584 221.271 133.879 221.898 133.287 224.279C132.969 225.684 132.77 227.115 132.694 228.554Z" fill="#233862"/>
<path d="M171.082 224.546C171.082 226.272 171.336 227.906 171.963 228.554H197.083C196.765 227.645 195.863 226.279 193.283 225.863C190.35 225.384 185.782 223.976 183.117 221.158C182.149 220.174 181.468 218.944 181.15 217.602C179.965 212.34 171.371 219.208 171.371 219.208C171.163 220.979 171.066 222.762 171.082 224.546Z" fill="#233862"/>
<path d="M154.367 167.715C154.672 169.245 154.884 170.793 155.001 172.349C155.798 187.915 168.114 223.504 170.321 224.335C173.726 225.616 179.091 222.884 181.904 221.989C182.474 221.823 182.961 221.451 183.273 220.947C183.584 220.442 183.697 219.84 183.589 219.257C177.491 191.246 175.249 150.938 174.424 127.034C174.24 120.191 173.409 113.38 171.942 106.693C171.942 106.693 141.902 98.6921 141.726 108.806C141.585 117.779 151.695 152.931 154.367 167.715Z" fill="#2B478B"/>
<path d="M154.367 167.715L174.438 127.034C174.254 120.191 173.423 113.38 171.956 106.693C171.956 106.693 141.916 98.6921 141.74 108.806C141.585 117.779 151.695 152.931 154.367 167.715Z" fill="#233862"/>
<path d="M161.05 108.855L145.174 223.828C145.174 223.828 138.201 225.511 132.78 224.166C132.78 224.166 128.127 163.017 128.515 148.234C128.902 133.45 125.173 108.672 129.403 105.939C133.633 103.207 161.05 108.855 161.05 108.855Z" fill="#2B478B"/>
<path d="M159.929 3.42677C156.937 3.08905 154.013 2.30067 151.257 1.08845C147.457 -0.566693 142.656 1.25044 141.098 2.07449C141.153 1.73754 141.283 1.41729 141.479 1.13775C141.084 1.42803 140.803 1.84627 140.682 2.32099C140.612 2.37734 140.577 2.41256 140.598 2.42665C140.163 2.34533 139.714 2.37438 139.293 2.51116C139.293 2.51116 139.653 2.46186 139.78 2.68724C139.795 2.71155 139.814 2.73302 139.836 2.75063C133.9 5.61718 133.357 14.9846 135.261 17.1538C137.559 19.7598 140.316 25.6056 140.316 25.6056C140.974 24.4973 141.183 23.1795 140.901 21.9221C140.485 19.626 142.466 19.626 144.976 18.5836C147.486 17.5412 145.392 14.6183 147.584 12.8434C149.777 11.0686 157.821 12.1391 157.715 10.7305C160.697 9.70221 159.929 3.72963 159.929 3.42677Z" fill="#004170"/>
<path d="M138.25 39.0508L141.909 117.42C141.909 117.42 172.422 117.913 171.519 111.018C170.617 104.122 160.521 41.4525 160.521 41.4525L138.222 39.0508H138.25Z" fill="#E9F3FE"/>
<path d="M127.358 83.4719C129.17 88.9093 125.75 107.165 124.538 113.356C124.27 114.659 124.094 115.434 124.094 115.434C128.324 122.301 143.791 122.216 143.791 122.216C146.767 109.074 148.318 88.1416 148.318 88.1416L136.452 36.135L121.506 49.9325C121.506 49.9325 122.641 58.3491 124.037 66.9135C125.123 73.689 126.378 80.5843 127.358 83.4719Z" fill="#22407A"/>
<path d="M152.752 24.2109C152.752 24.2109 153.041 25.1054 155.304 24.7814C155.304 24.7814 157.201 24.5067 157.06 23.5066C155.586 23.2071 154.053 23.4576 152.752 24.2109Z" fill="white"/>
<path d="M169.905 40.1708C170.61 40.8752 190.991 60.6312 194.939 68.3434C198.887 76.0556 176.574 91.8323 176.574 91.8323C175.8 92.1384 174.964 92.2566 174.135 92.1774C175.192 100.855 176.377 108.863 175.672 112.286C174.403 118.462 168.685 120.533 168.685 120.033C168.685 119.878 167.212 97.495 165.456 85.9442C161.572 60.3706 156.897 36.2971 156.897 36.2971C161.411 36.8907 165.802 38.1983 169.905 40.1708ZM182.031 71.8086C182.044 71.7698 182.044 71.7278 182.031 71.6889C182.031 70.562 177.716 68.0617 173.042 65.1176L172.957 65.0261C173.051 67.3477 173.028 69.6725 172.887 71.9918C172.702 76.6305 172.879 81.2765 173.416 85.8879C175.651 82.3733 181.573 73.0623 182.031 71.8086Z" fill="#22407A"/>
<path d="M137.39 36.0434C137.348 35.2968 140.915 34.2615 140.915 34.2615C140.915 34.2615 144.976 39.896 151.659 39.9805C151.659 39.9805 149.756 43.6852 147.514 44.6431C147.493 44.6431 137.609 40.4876 137.39 36.0434Z" fill="#D9E9F9"/>
<path d="M161.029 92.9381C160.867 94.7693 160.027 96.4745 158.674 97.7204L156.559 99.6784C156.433 99.7945 156.284 99.8833 156.122 99.9391C155.96 99.9949 155.788 100.017 155.617 100.003C155.446 99.9888 155.28 99.9397 155.129 99.8584C154.978 99.7771 154.846 99.6654 154.74 99.5305L152.103 96.192C151.394 95.2959 151.06 94.1596 151.173 93.0226C151.42 90.4941 151.878 85.6132 152.244 80.9084C152.541 77.0981 152.78 73.3934 152.801 71.1396C152.858 63.9485 151.391 41.009 151.391 41.009L153.119 41.1006C156.13 47.8199 158.325 54.8759 159.654 62.1173C160.24 65.239 160.638 68.3929 160.845 71.5622C160.845 71.5622 161.769 84.6765 161.029 92.9381Z" fill="#DA291C"/>
<path d="M161.029 92.938C160.867 94.7692 160.027 96.4744 158.674 97.7203L156.559 99.6783C156.433 99.7944 156.284 99.8832 156.122 99.939C155.96 99.9948 155.788 100.016 155.617 100.003C155.446 99.9887 155.28 99.9395 155.129 99.8583C154.978 99.777 154.846 99.6653 154.74 99.5303L152.103 96.1919C151.394 95.2958 151.06 94.1595 151.173 93.0225C151.42 90.494 151.878 85.6131 152.244 80.9083C157.017 75.5555 158.949 68.1602 159.689 62.1172C160.275 65.2389 160.673 68.3928 160.881 71.562C160.881 71.562 161.769 84.6764 161.029 92.938Z" fill="#B8160A"/>
<path d="M151.638 39.8468C151.638 39.8468 155.163 37.7338 155.163 35.48C155.163 35.48 157.447 35.1913 158.449 36.297C158.449 36.297 159.287 40.1989 158.174 42.4598C158.209 42.4598 153.105 41.685 151.638 39.8468Z" fill="#D9E9F9"/>
<path d="M149.234 39.5086L154.043 38.3606C154.139 38.3723 154.232 38.4038 154.316 38.4531C154.4 38.5024 154.472 38.5685 154.529 38.6472C154.586 38.726 154.626 38.8156 154.647 38.9105C154.667 39.0054 154.668 39.1035 154.649 39.1987C154.649 39.9805 153.295 42.2625 152.703 42.4456C152.111 42.6287 148.099 41.0933 149.234 39.5086Z" fill="#B8160A"/>
<path d="M137.947 35.6562C137.912 34.9096 140.309 33.3672 140.309 33.3672C140.309 33.3672 144.955 38.7904 151.638 38.889C151.638 38.889 149.735 42.5937 147.493 43.5516C147.493 43.5516 138.166 40.1145 137.947 35.6562Z" fill="#E9F3FE"/>
<path d="M151.638 38.889C151.638 38.889 155.227 36.9944 155.234 34.7195C156.395 35.2261 157.465 35.921 158.399 36.7761C158.925 38.3204 158.857 40.0049 158.209 41.502C158.209 41.502 153.105 40.7273 151.638 38.889Z" fill="#E9F3FE"/>
<path d="M178.048 93.1563C178.052 92.6841 177.954 92.2166 177.762 91.7853C177.57 91.354 177.287 90.969 176.932 90.6565C176.578 90.3439 176.161 90.111 175.708 89.9737C175.256 89.8363 174.78 89.7975 174.311 89.8601C174.037 89.8855 173.771 89.966 173.528 90.0967C173.286 90.2274 173.073 90.4057 172.901 90.6208C171.54 92.4309 170.25 97.6639 172.661 97.9386C173.641 98.0443 174.896 97.354 175.869 96.6145C176.842 95.875 178.026 94.6988 178.026 93.4592L178.048 93.1563Z" fill="#FFB27D"/>
<path d="M124.531 113.363C128.902 108.813 136.467 99.8614 136.199 92.5154C135.839 82.2324 124.023 66.9207 124.023 66.9207C125.123 73.6962 126.378 80.5914 127.358 83.4791C129.17 88.9093 125.751 107.165 124.531 113.363Z" fill="#233862"/>
<path d="M124.664 95.4595C124.664 95.4595 127.816 97.0301 129.719 96.2413C131.623 95.4524 133.879 94.8679 136.015 97.2977C138.151 99.7276 138.595 101.404 138.13 102.305C137.665 103.207 132.708 102.862 131.884 102.305C131.059 101.749 129.769 100.362 128.923 100.601C126.638 101.263 124.693 99.5234 123.635 98.1359C123.001 97.2977 124.749 96.8963 124.664 95.4595Z" fill="#FFB27D"/>
<path d="M136.452 36.135C136.452 36.135 123.924 37.5436 120.942 42.9739C117.96 48.4042 102.612 70.5055 103.127 79.6898C103.642 88.874 124.08 99.157 124.08 99.157C124.08 99.157 128.613 97.2483 128.676 95.1917C128.74 93.1351 114.576 80.8378 115.401 78.5417C116.226 76.2457 131.905 58.1166 133.414 52.1088C134.923 46.101 136.452 36.135 136.452 36.135Z" fill="#22407A"/>
<path d="M172.986 65.005L173.071 65.0965C177.745 68.0406 182.059 70.5409 182.059 71.6678C182.687 69.6746 176.617 61.3496 174.65 59.6522C172.683 57.9548 172.986 65.005 172.986 65.005Z" fill="#233862"/>
<path d="M140.309 33.3672C140.309 33.3672 149.82 73.1609 148.304 88.1487C148.304 88.1487 144.779 72.1326 136.396 59.0113C136.396 59.0113 139.463 56.3137 139.301 55.3207C137.837 54.9248 136.306 54.8479 134.81 55.0953C134.81 55.0953 135.043 37.9452 136.453 36.1351C137.498 34.9175 138.82 33.9682 140.309 33.3672Z" fill="#233862"/>
<path d="M155.234 34.7195C155.107 34.7758 164.66 73.6047 165.463 86.0288C165.463 86.0288 164.512 63.8499 164.603 57.4618C164.603 57.4618 160.655 55.3488 160.655 54.6445C160.655 53.9402 164.885 51.9329 164.885 51.9329C164.885 51.9329 162.213 38.2763 160.761 36.769C159.309 35.2618 155.234 34.7195 155.234 34.7195Z" fill="#233862"/>
<path d="M348.004 202.952L344.535 217.538L339.339 217.51L339.149 202.952H348.004Z" fill="#FFB27D"/>
<path d="M303.659 203.579L293.796 217.538L289.946 212.608L295.882 201.656L303.659 203.579Z" fill="#FFB27D"/>
<path d="M344.711 216.728C344.494 218.746 344.72 220.786 345.373 222.708C345.373 222.708 346.219 226.574 342.405 226.645C338.591 226.715 337.661 226.356 338.091 223.99C338.521 221.623 339.346 217.51 339.346 217.51L344.711 216.728Z" fill="#FFB27D"/>
<path d="M337.731 228.547H345.649C346.079 226.518 345.374 222.708 345.374 222.708C341.052 226.835 338.324 222.609 338.324 222.609C337.647 224.37 337.731 228.547 337.731 228.547Z" fill="#D57912"/>
<path d="M280.76 224.553C280.76 224.553 287.81 216.581 289.925 212.58L295.156 215.256L283.467 226.223L280.732 225.863L280.76 224.553Z" fill="#FFB27D"/>
<path d="M276.446 228.533H286.203C287.056 227.758 287.881 226.201 288.882 224.159C289.46 222.983 290.743 222.342 292.069 221.989V228.533H294.085L295.953 221.574C297.201 219.243 296.263 217.102 295.389 215.235C294.367 215.235 291.413 215.939 286.224 221.926C285.577 222.753 284.747 223.418 283.799 223.869C282.851 224.32 281.81 224.544 280.76 224.525L280.683 224.567C277.722 225.948 276.756 227.617 276.446 228.533Z" fill="#D57912"/>
<path d="M331.26 30.1133C331.265 30.0782 331.265 30.0427 331.26 30.0077C331.254 29.9918 331.254 29.9743 331.26 29.9584C331.464 29.254 331.704 28.5497 331.965 27.8454V27.7046C332.663 25.7311 333.492 23.8064 334.446 21.9433C334.982 20.922 335.511 19.9712 336.047 19.126C336.124 18.9992 336.202 18.8724 336.286 18.7598C336.31 18.715 336.341 18.6745 336.378 18.64C336.413 18.572 336.456 18.5082 336.505 18.4499C336.994 17.706 337.557 17.0124 338.183 16.3792C338.665 15.8582 339.261 15.4556 339.924 15.203C341.773 14.6957 343.727 14.7176 345.564 15.2664C345.294 14.9171 344.937 14.6451 344.528 14.4775C345.487 14.5268 347.39 15.8862 347.39 15.8862C351.923 15.1114 354.299 16.2383 356.055 18.8161C356.972 20.1643 357.623 21.6752 357.972 23.2674C358.232 24.3146 358.421 25.3782 358.536 26.4509C358.995 30.8106 358.91 35.607 358.424 37.3959C357.26 41.7908 361.61 44.1785 367.673 49.0382C379.228 58.3211 378.551 67.4983 378.551 67.4983C378.446 67.5476 378.333 67.5758 378.206 67.6391C377.783 66.4348 376.873 64.1176 375.823 63.5964C376.205 65.1484 376.508 66.7187 376.732 68.3012C372.587 70.3085 364.874 74.8584 359.107 78.3377C358.741 78.5419 358.402 78.7603 358.05 78.9645C358.319 78.0271 358.401 77.0458 358.29 76.0768L356.922 79.6407C355.653 80.4224 354.518 81.0986 353.644 81.648L351.599 82.9016C351.711 82.1474 351.631 81.3772 351.366 80.6619C351.093 79.7678 350.773 78.8886 350.408 78.0278C348.578 73.7926 346.457 69.6885 344.063 65.7446L343.477 64.8078C340.935 60.5538 338.109 56.476 335.017 52.602C334.217 51.6205 333.368 50.6802 332.472 49.7848L332.381 49.6932C332.038 48.8377 331.79 47.9473 331.64 47.038C331.28 44.8247 331.16 42.579 331.281 40.3399C330.967 42.5662 330.92 44.8217 331.14 47.0591C331.197 47.5816 331.291 48.0994 331.422 48.6086C331.074 48.1336 330.785 47.618 330.562 47.0732C328.715 42.8684 329.434 36.2338 331.26 30.1133Z" fill="#004170"/>
<path d="M334.389 51.1793C334.347 51.1793 338.655 53.4331 341.898 52.5456C344.943 51.7146 346.939 47.7704 346.896 47.7563C345.599 47.5028 345.232 45.7279 345.261 38.1143L344.675 38.227L334.862 40.1709C334.862 40.1709 335.087 43.2557 335.094 46.1646C335.102 48.6015 334.953 50.9187 334.389 51.1793Z" fill="#FFB27D"/>
<path d="M334.862 40.171C334.862 40.171 335.087 43.2558 335.094 46.1647C340.579 46.0097 343.484 41.002 344.675 38.2271L334.862 40.171Z" fill="#EF9E67"/>
<path d="M346.692 38.5721C346.692 38.5721 350.415 34.6913 351.86 31.0219C352.889 28.4018 353.538 18.0484 343.111 17.4568C341.012 17.3287 338.911 17.6729 336.963 18.4639C334.467 19.5063 330.618 22.07 332.423 31.5783L332.74 34.7336L346.692 38.5721Z" fill="#004170"/>
<path d="M290.553 208.297C290.553 208.297 293.154 208.748 295.297 208.91C295.77 208.91 296.228 208.966 296.623 208.966C298.018 208.856 299.401 208.62 300.754 208.262H300.846L301.967 207.98H302.037C302.037 207.98 315.037 193.521 322.334 170.335C322.503 169.793 322.68 169.25 322.87 168.701C326.86 157.073 335.137 142.472 339.501 129.259C340.206 127.146 340.819 125.174 341.376 123.301C341.553 122.695 341.729 122.11 341.891 121.526C344.395 112.937 346.071 104.128 346.897 95.2197L320.677 101.89C320.677 101.89 309.665 149.558 290.553 208.297Z" fill="#6BB7BF"/>
<path d="M333.149 41.7204C333.149 41.7204 345.84 44.4954 347.447 36.5719C349.054 28.6483 351.776 23.6759 343.739 21.57C335.702 19.4641 333.509 22.1616 332.332 24.676C331.154 27.1904 329.885 40.8189 333.149 41.7204Z" fill="#FFB27D"/>
<path d="M338 20.2036C338 20.2036 339.607 30.2049 344.683 32.6559C349.759 35.1069 352.367 34.142 352.367 34.142C352.367 34.142 350.809 30.5218 351.106 24.6619C351.084 24.6619 341.525 16.3088 338 20.2036Z" fill="#004170"/>
<path d="M338.704 21.1333C338.704 21.1333 335.68 22.6828 334.637 24.5774C333.593 26.472 332.472 30.5641 331.288 30.1767C331.288 30.1767 329.941 23.3308 333.614 20.3515C337.492 17.1891 338.704 21.1333 338.704 21.1333Z" fill="#004170"/>
<path d="M295.297 208.91C295.77 208.91 296.228 208.967 296.623 208.967C298.018 208.856 299.401 208.62 300.754 208.262H300.846L301.967 207.98H302.037C302.037 207.98 315.037 193.521 322.334 170.335C322.503 169.793 322.68 169.25 322.87 168.701C326.86 157.073 335.137 142.472 339.501 129.259C340.206 127.146 340.819 125.174 341.376 123.301C341.553 122.695 341.729 122.111 341.891 121.526L337.259 118.004C337.259 118.004 323.335 140.542 319.028 161.721C315.439 179.294 300.07 202.107 295.297 208.91Z" fill="#599DAD"/>
<path d="M336.773 163.7C336.695 174.012 337.217 197.705 338.557 207.516C338.557 207.516 339.833 208.643 342.991 208.657C346.149 208.671 347.679 207.481 347.679 207.481C351.049 190.422 353.446 176.308 355.195 164.144C356.605 154.164 357.895 145.607 358.875 138.24C359.742 131.718 360.376 126.118 360.687 121.301C360.729 120.648 360.764 120.007 360.792 119.378C360.825 118.552 360.853 117.749 360.877 116.969C360.877 116.187 360.877 115.42 360.877 114.68H360.764L354.25 114.046L333.671 112.039C334.023 130.091 336.815 157.735 336.773 163.7Z" fill="#6BB7BF"/>
<path d="M342.991 208.657C344.638 208.754 346.274 208.344 347.679 207.481C351.049 190.422 353.446 176.308 355.195 164.144C356.605 154.164 357.895 145.607 358.875 138.24C359.742 131.718 360.377 126.118 360.687 121.301C360.722 118.92 360.743 116.645 360.771 114.673C360.8 112.701 360.835 110.976 360.891 109.799L354.257 114.025L347.285 118.483C347.285 118.483 357.155 127.478 354.751 144.48C352.347 161.482 346.375 206.248 342.991 208.657Z" fill="#599DAD"/>
<path d="M335.497 46.7983C335.497 46.7983 327.037 45.7489 323.476 49.2775C319.127 53.602 310.956 78.3938 311.28 81.2252C311.407 82.3028 315.7 81.8027 317.167 80.2603C324.506 72.5762 332.916 52.5455 335.497 46.7983Z" fill="#DA291C"/>
<path d="M317.053 116.645C324.949 118.695 361.793 122.745 362.11 113.525C362.188 111.278 362.11 108.56 361.934 105.623C361.384 96.5159 359.889 85.2609 359.17 79.07C358.846 76.2527 359.939 63.5187 359.1 56.5953C359.006 55.6993 358.833 54.8132 358.585 53.9471C356.999 48.7211 349.843 47.2984 346.177 47.1716L335.102 46.7983C335.102 46.7983 323.659 59.5605 322.073 63.4835C320.487 67.4066 319.958 80.8308 318.724 87.3316C317.491 93.8324 313.218 115.652 317.053 116.645Z" fill="#DA291C"/>
<path d="M338.817 85.4932C338.817 85.4932 344.972 104.383 361.97 105.615C361.42 96.5086 359.925 85.2537 359.206 79.0628C358.882 76.2455 359.974 63.5115 359.135 56.5881C358.91 56.6304 358.712 56.7572 358.48 56.7994C339.769 60.4126 337.118 81.5561 338.817 85.4932Z" fill="#B8160A"/>
<path d="M311.815 81.6689C311.815 81.6689 322.933 85.3102 336.491 79.4644C336.491 79.4644 340.185 79.1193 342.011 79.5842C342.011 79.5842 341.623 75.9288 339.832 74.9357C338.042 73.9426 330.336 76.0908 328.038 75.7738C322.99 75.1047 314.219 74.5624 311.815 81.6689Z" fill="#EF9E67"/>
<path d="M321.721 73.2172C321.721 73.2172 320.678 64.1879 324.217 58.7506C323.805 58.6533 323.372 58.6977 322.988 58.8766C322.604 59.0555 322.292 59.3585 322.102 59.7366C321.199 61.1453 314.96 74.5624 317.928 75.5485C320.896 76.5345 321.721 73.2172 321.721 73.2172Z" fill="#B8160A"/>
<path d="M337.957 74.6892C338.112 74.6892 343.202 75.3513 344.105 75.9922C345.007 76.6331 344.21 78.8517 342.518 79.063C340.826 79.2743 337.957 74.6892 337.957 74.6892Z" fill="#EF9E67"/>
<path d="M351.874 78.1472C342.597 77.7342 333.357 76.706 324.217 75.0693C324.217 75.0693 321.813 75.0693 322.102 77.1823C322.391 79.2952 344.894 90.9939 349.844 88.7119L351.874 78.1472Z" fill="#FFB27D"/>
<path d="M324.217 75.0345C324.217 75.0345 322.68 73.1821 321.721 73.1821C320.762 73.1821 318.273 74.4006 317.9 75.5134C317.526 76.6262 320.854 75.8303 322.094 77.1544C323.335 78.4786 324.217 75.0345 324.217 75.0345Z" fill="#FFB27D"/>
<path d="M346.178 47.1577C346.178 47.1577 358.36 47.1577 360.144 51.5667C363.38 59.5607 352.678 86.0499 349.844 88.7122C348.631 89.8673 342.991 88.0502 342.991 80.4225C342.991 76.4854 343.28 53.3698 346.178 47.1577Z" fill="#DA291C"/>
<path d="M523.415 229.793H0.669753C0.488951 229.784 0.318559 229.706 0.193876 229.575C0.069193 229.444 -0.000225868 229.27 5.52137e-07 229.089C-0.000225868 228.908 0.069193 228.734 0.193876 228.603C0.318559 228.472 0.488951 228.394 0.669753 228.385H523.415C523.602 228.385 523.781 228.459 523.913 228.591C524.046 228.723 524.12 228.902 524.12 229.089C524.12 229.276 524.046 229.455 523.913 229.587C523.781 229.719 523.602 229.793 523.415 229.793Z" fill="#004170"/>
</svg>
