<svg width="587" height="275" viewBox="0 0 587 275" fill="none" xmlns="http://www.w3.org/2000/svg">
<path d="M103.633 231.777H548.389L530.332 165.146H103.633V231.777Z" fill="#1C2948"/>
<path d="M433.955 150.158C427.291 149.906 420.361 149.777 413.165 149.772C413.165 149.772 373.323 115.238 327.227 103.461C374.602 115.167 433.955 150.158 433.955 150.158Z" fill="#004170"/>
<path d="M73.1552 176.079V137.948C73.1552 137.948 117.933 132.836 145.007 123.039C207.7 100.029 241.392 99.6035 298.329 99.6035C341.55 99.6035 385.333 128.521 403.912 142.452C410.18 147.136 417.759 149.743 425.586 149.906C493.972 151.405 536.238 165.043 557.233 174.249C562.047 176.365 566.139 179.835 569.011 184.237C571.883 188.638 573.409 193.78 573.404 199.033V211.867C574.082 211.867 574.733 212.137 575.213 212.616C575.693 213.095 575.962 213.745 575.962 214.423V235.721C575.962 236.399 575.693 237.049 575.213 237.528C574.733 238.007 574.082 238.277 573.404 238.277H532.606C536.676 230.98 538.766 222.748 538.671 214.396C538.575 206.044 536.297 197.862 532.062 190.66C527.826 183.459 521.781 177.488 514.524 173.339C507.268 169.19 499.052 167.008 490.691 167.008C482.33 167.008 474.114 169.19 466.858 173.339C459.601 177.488 453.556 183.459 449.32 190.66C445.085 197.862 442.807 206.044 442.711 214.396C442.616 222.748 444.706 230.98 448.776 238.277H197.736C201.805 230.98 203.896 222.748 203.801 214.396C203.705 206.044 201.427 197.862 197.191 190.66C192.956 183.459 186.91 177.488 179.654 173.339C172.397 169.19 164.182 167.008 155.821 167.008C147.46 167.008 139.244 169.19 131.988 173.339C124.731 177.488 118.686 183.459 114.45 190.66C110.215 197.862 107.936 206.044 107.841 214.396C107.745 222.748 109.836 230.98 113.906 238.277H103.878C69.1836 238.277 64.2645 202.835 63.9408 185.426C63.9241 184.206 64.15 182.995 64.6053 181.862C65.0607 180.73 65.7366 179.699 66.5937 178.83C67.4508 177.96 68.4721 177.269 69.5984 176.797C70.7248 176.325 71.9337 176.081 73.1552 176.079Z" fill="#F1A34F"/>
<path d="M320.311 106.49C359.924 116.5 402.427 150.734 402.427 150.734L290.006 148.328C287.839 148.289 285.727 147.641 283.911 146.458C282.096 145.275 280.651 143.605 279.742 141.639L262.481 104.502H304.164C309.608 104.493 315.032 105.16 320.311 106.49Z" fill="#004170"/>
<path d="M255.896 105.354L271.688 141.481C271.967 142.121 272.082 142.821 272.023 143.517C271.964 144.212 271.733 144.882 271.35 145.466C270.966 146.05 270.444 146.53 269.829 146.861C269.214 147.193 268.526 147.366 267.827 147.366C251.901 147.366 210.084 146.782 186.01 140.756C184.694 140.425 183.49 139.749 182.523 138.797C181.557 137.845 180.863 136.651 180.514 135.341C180.165 134.03 180.174 132.65 180.539 131.344C180.904 130.038 181.613 128.854 182.591 127.914C192.374 118.543 213.645 105.354 255.896 105.354Z" fill="#004170"/>
<path d="M570.482 186.783H554.059C554.059 186.783 527.213 161.738 484.094 154.639C484.094 154.639 563.723 163.41 570.482 186.783Z" fill="#DA291C"/>
<path d="M73.1548 176.079H77.5054C78.6978 176.079 79.866 175.742 80.8748 175.107C81.8837 174.472 82.6919 173.564 83.2062 172.489C85.7171 167.173 91.2362 157.084 99.7006 149.914C100.421 149.303 100.936 148.486 101.177 147.574C101.419 146.662 101.374 145.697 101.05 144.811C100.725 143.924 100.137 143.159 99.3631 142.617C98.5896 142.075 97.6685 141.784 96.7238 141.781H73.1548V176.079Z" fill="#B64C41"/>
<path d="M288.79 158.93H310.646C311.225 158.93 311.78 158.701 312.19 158.293C312.6 157.885 312.831 157.331 312.833 156.753C312.833 156.173 312.603 155.618 312.192 155.208C311.782 154.798 311.226 154.568 310.646 154.568H288.79C288.21 154.568 287.654 154.798 287.244 155.208C286.833 155.618 286.603 156.173 286.603 156.753C286.605 157.331 286.836 157.885 287.246 158.293C287.656 158.701 288.211 158.93 288.79 158.93Z" fill="#163560"/>
<path d="M192.208 158.93H214.064C214.642 158.93 215.196 158.701 215.605 158.292C216.013 157.884 216.243 157.33 216.243 156.753C216.244 156.466 216.188 156.182 216.079 155.917C215.97 155.652 215.81 155.411 215.608 155.208C215.405 155.005 215.164 154.844 214.9 154.734C214.635 154.624 214.351 154.568 214.064 154.568H192.208C191.921 154.568 191.637 154.624 191.372 154.734C191.107 154.844 190.867 155.005 190.664 155.208C190.462 155.411 190.301 155.652 190.192 155.917C190.083 156.182 190.028 156.466 190.029 156.753C190.029 157.33 190.258 157.884 190.667 158.292C191.076 158.701 191.63 158.93 192.208 158.93Z" fill="#163560"/>
<path d="M210.693 173.097H407.694C409.548 173.097 411.369 173.59 412.969 174.526C414.57 175.461 415.892 176.806 416.801 178.421C417.709 180.036 418.171 181.863 418.138 183.715C418.106 185.567 417.581 187.378 416.616 188.96L403.928 209.792C403.275 210.865 402.408 211.792 401.381 212.515C400.354 213.238 399.189 213.742 397.958 213.995C396.728 214.248 395.458 214.245 394.229 213.986C392.999 213.727 391.836 213.218 390.813 212.49C373.971 200.484 325.451 175.597 210.693 173.097Z" fill="#DD7F30"/>
<path d="M282.592 81.3108H292.698C293.342 81.3147 293.968 81.5147 294.495 81.884C295.021 82.2533 295.422 82.7744 295.644 83.3775L301.597 99.9425H279.489V84.4345C279.497 83.6126 279.826 82.8263 280.405 82.243C280.985 81.6596 281.769 81.3251 282.592 81.3108Z" fill="#F1A34F"/>
<path d="M279.457 99.6586V88.3391H283.8C285.258 88.3436 286.68 88.7964 287.873 89.636C289.065 90.4757 289.97 91.6615 290.464 93.0326L292.833 99.6586H279.457Z" fill="#004170"/>
<path d="M340.208 178.705H325.253V193.645H340.208V178.705Z" fill="#004170"/>
<path d="M325.253 193.637H310.298V208.578H325.253V193.637Z" fill="#004170"/>
<path d="M310.298 178.705H295.344V193.645H310.298V178.705Z" fill="#004170"/>
<path d="M295.352 193.637H280.397V208.578H295.352V193.637Z" fill="#004170"/>
<path d="M280.397 178.705H265.442V193.645H280.397V178.705Z" fill="#004170"/>
<path d="M176.235 251.324C196.21 239.84 203.084 214.353 191.589 194.397C180.093 174.442 154.581 167.574 134.606 179.059C114.631 190.543 107.757 216.03 119.253 235.985C130.748 255.941 156.26 262.808 176.235 251.324Z" fill="#2D3A62"/>
<path d="M155.406 189.378C160.521 189.377 165.522 190.891 169.776 193.729C174.029 196.567 177.345 200.601 179.303 205.322C181.261 210.043 181.774 215.238 180.776 220.25C179.779 225.262 177.316 229.866 173.699 233.479C170.082 237.092 165.474 239.553 160.457 240.549C155.44 241.546 150.24 241.034 145.515 239.077C140.789 237.121 136.751 233.809 133.91 229.559C131.069 225.31 129.554 220.314 129.555 215.204C129.555 208.354 132.279 201.786 137.127 196.942C141.975 192.099 148.55 189.378 155.406 189.378ZM151.869 192.21C146.361 193.061 141.342 195.86 137.727 200.098L146.689 205.62C148.173 204.281 149.945 203.302 151.869 202.756V192.21ZM158.975 192.21V202.733C160.898 203.278 162.671 204.258 164.155 205.596L173.109 200.074C169.488 195.839 164.463 193.048 158.951 192.21H158.975ZM176.906 224.228C178.112 221.354 178.729 218.268 178.721 215.152C178.713 212.036 178.08 208.953 176.859 206.085L167.905 211.607C168.239 212.777 168.409 213.987 168.411 215.204C168.412 216.382 168.253 217.555 167.937 218.69L176.906 224.228ZM158.975 238.206C164.517 237.353 169.564 234.529 173.188 230.254L164.242 224.733C162.744 226.118 160.939 227.129 158.975 227.683V238.206ZM161.344 215.204C161.344 214.043 160.999 212.908 160.354 211.943C159.708 210.978 158.791 210.226 157.717 209.782C156.644 209.338 155.463 209.221 154.323 209.448C153.184 209.674 152.137 210.233 151.315 211.054C150.494 211.875 149.934 212.921 149.708 214.059C149.481 215.197 149.597 216.377 150.042 217.45C150.487 218.522 151.24 219.439 152.206 220.084C153.172 220.728 154.307 221.073 155.469 221.073C157.016 221.056 158.494 220.43 159.582 219.332C160.67 218.233 161.281 216.75 161.281 215.204H161.344ZM151.932 238.206V227.683C149.968 227.129 148.163 226.118 146.665 224.733L137.712 230.254C141.323 234.516 146.348 237.338 151.869 238.206H151.932ZM142.97 218.69C142.304 216.371 142.304 213.911 142.97 211.591L134.016 206.069C132.796 208.937 132.163 212.02 132.155 215.136C132.146 218.252 132.763 221.338 133.969 224.212L142.97 218.69Z" fill="#98BDF4"/>
<path d="M520.159 244.745C536.455 228.465 536.455 202.069 520.159 185.788C503.862 169.508 477.441 169.508 461.144 185.788C444.848 202.069 444.848 228.465 461.144 244.745C477.441 261.026 503.862 261.026 520.159 244.745Z" fill="#004170"/>
<path d="M490.671 189.441C495.786 189.44 500.787 190.954 505.041 193.792C509.294 196.63 512.61 200.664 514.568 205.385C516.526 210.106 517.039 215.301 516.042 220.313C515.044 225.325 512.581 229.929 508.964 233.542C505.347 237.155 500.739 239.616 495.722 240.612C490.705 241.609 485.505 241.097 480.78 239.14C476.054 237.184 472.016 233.872 469.175 229.622C466.334 225.373 464.819 220.377 464.82 215.267C464.82 208.417 467.544 201.849 472.392 197.005C477.24 192.162 483.815 189.441 490.671 189.441ZM487.134 192.273C481.626 193.123 476.607 195.923 472.992 200.161L481.954 205.683C483.436 204.342 485.209 203.362 487.134 202.819V192.273ZM494.24 192.273V202.796C496.165 203.338 497.938 204.318 499.42 205.659L508.382 200.137C504.752 195.898 499.715 193.106 494.193 192.273H494.24ZM512.172 224.291C513.377 221.417 513.994 218.331 513.986 215.215C513.978 212.099 513.345 209.016 512.124 206.148L503.17 211.67C503.835 213.99 503.835 216.449 503.17 218.769L512.172 224.291ZM494.193 238.269C499.735 237.416 504.782 234.592 508.405 230.317L499.459 224.796C497.962 226.183 496.157 227.197 494.193 227.754V238.269ZM496.522 215.267C496.522 214.106 496.178 212.971 495.532 212.006C494.887 211.041 493.969 210.289 492.896 209.845C491.822 209.401 490.641 209.284 489.502 209.511C488.362 209.737 487.315 210.296 486.494 211.117C485.672 211.938 485.113 212.984 484.886 214.122C484.659 215.26 484.776 216.44 485.22 217.513C485.665 218.585 486.418 219.502 487.384 220.147C488.35 220.791 489.486 221.136 490.648 221.136C492.206 221.136 493.7 220.517 494.801 219.417C495.903 218.316 496.522 216.823 496.522 215.267ZM487.11 238.269V227.746C485.146 227.189 483.341 226.175 481.844 224.788L472.898 230.31C476.52 234.587 481.567 237.413 487.11 238.269ZM478.148 218.753C477.484 216.434 477.484 213.974 478.148 211.654L469.195 206.132C467.974 209 467.341 212.083 467.333 215.199C467.325 218.315 467.942 221.401 469.147 224.275L478.148 218.753Z" fill="#98BDF4"/>
<path d="M218.762 0H133.85C119.961 0 108.702 11.2483 108.702 25.1237V231.185C108.702 245.061 119.961 256.309 133.85 256.309H218.762C232.651 256.309 243.91 245.061 243.91 231.185V25.1237C243.91 11.2483 232.651 0 218.762 0Z" fill="#699DEE"/>
<path d="M146.957 1.23843e-06H231.869C238.539 1.23843e-06 244.935 2.64696 249.652 7.35856C254.368 12.0702 257.017 18.4605 257.017 25.1237V232.431C257.017 235.731 256.367 238.998 255.103 242.046C253.839 245.094 251.987 247.864 249.652 250.197C247.316 252.53 244.544 254.38 241.493 255.643C238.442 256.905 235.172 257.555 231.869 257.555H146.957C140.286 257.555 133.887 254.907 129.169 250.194C124.452 245.481 121.801 239.089 121.801 232.424V25.1237C121.801 21.8237 122.452 18.5561 123.716 15.5074C124.981 12.4588 126.834 9.68882 129.17 7.35577C131.506 5.02272 134.279 3.17228 137.331 1.91017C140.383 0.648047 143.654 -0.00103485 146.957 1.23843e-06Z" fill="#9FC1F4"/>
<path d="M209.232 9.70239H174.048C173.686 9.70239 173.338 9.84616 173.082 10.1021C172.826 10.358 172.682 10.7051 172.682 11.067C172.682 11.429 172.826 11.7761 173.082 12.032C173.338 12.2879 173.686 12.4317 174.048 12.4317H209.2C209.563 12.4317 209.91 12.2879 210.166 12.032C210.422 11.7761 210.566 11.429 210.566 11.067C210.566 10.7051 210.422 10.358 210.166 10.1021C209.91 9.84616 209.563 9.70239 209.2 9.70239H209.232Z" fill="#699DEE"/>
<path d="M167.842 9.70239C167.572 9.70239 167.308 9.78243 167.083 9.93238C166.859 10.0823 166.683 10.2955 166.58 10.5448C166.477 10.7942 166.45 11.0686 166.502 11.3333C166.555 11.598 166.685 11.8411 166.876 12.032C167.067 12.2228 167.311 12.3528 167.576 12.4055C167.841 12.4581 168.115 12.4311 168.365 12.3278C168.614 12.2245 168.828 12.0496 168.978 11.8252C169.128 11.6008 169.208 11.3369 169.208 11.067C169.206 10.7057 169.061 10.3599 168.806 10.1044C168.55 9.84891 168.204 9.70446 167.842 9.70239Z" fill="#699DEE"/>
<path d="M182.268 242.142C182.271 240.4 182.791 238.698 183.762 237.251C184.733 235.804 186.111 234.677 187.723 234.013C189.335 233.348 191.108 233.176 192.818 233.518C194.527 233.859 196.097 234.7 197.329 235.933C198.561 237.166 199.4 238.736 199.739 240.444C200.078 242.153 199.902 243.924 199.234 245.533C198.566 247.142 197.436 248.517 195.986 249.485C194.535 250.452 192.831 250.969 191.087 250.969C189.928 250.969 188.78 250.74 187.708 250.296C186.637 249.853 185.664 249.202 184.845 248.382C184.026 247.562 183.377 246.589 182.934 245.518C182.492 244.448 182.266 243.3 182.268 242.142Z" fill="#699DEE"/>
<path d="M245.474 20.3198H133.061V227.635H245.474V20.3198Z" fill="#D5E7F7"/>
<path d="M245.474 203.584H133.061V227.651H245.474V203.584Z" fill="#D5E7F7"/>
<path d="M204.566 42.0435C204.41 42.0441 204.256 42.0062 204.118 41.9333C203.981 41.8604 203.863 41.7546 203.776 41.6254L194.301 27.5136C194.209 27.4114 194.141 27.2908 194.1 27.16C194.059 27.0292 194.046 26.8911 194.063 26.755C194.08 26.6189 194.125 26.4879 194.197 26.3708C194.268 26.2538 194.364 26.1533 194.477 26.0762C194.591 25.9991 194.719 25.9471 194.855 25.9238C194.99 25.9004 195.129 25.9061 195.261 25.9407C195.394 25.9752 195.518 26.0377 195.625 26.1239C195.732 26.2102 195.819 26.3182 195.88 26.4408L205.355 40.5448C205.427 40.6498 205.477 40.7678 205.502 40.8922C205.528 41.0166 205.529 41.1448 205.504 41.2695C205.48 41.3941 205.431 41.5127 205.361 41.6185C205.291 41.7243 205.2 41.8151 205.095 41.8858C204.938 41.9896 204.754 42.0446 204.566 42.0435Z" fill="#F99746"/>
<path d="M206.65 51.3989C206.65 50.4968 206.918 49.615 207.42 48.8651C207.921 48.1151 208.635 47.5308 209.469 47.1859C210.303 46.8411 211.221 46.7512 212.107 46.9278C212.992 47.1043 213.806 47.5394 214.444 48.1778C215.082 48.8162 215.516 49.6294 215.691 50.5143C215.866 51.3992 215.774 52.3162 215.428 53.1492C215.081 53.9822 214.495 54.6937 213.743 55.1937C212.992 55.6938 212.109 55.9598 211.206 55.9583C210.607 55.9583 210.014 55.8403 209.461 55.6111C208.907 55.3818 208.405 55.0459 207.981 54.6224C207.558 54.1989 207.223 53.6962 206.994 53.1431C206.766 52.59 206.649 51.9973 206.65 51.3989Z" fill="#F99746"/>
<path d="M189.05 203.332L174.577 179.581C172.748 176.588 169.851 174.4 166.47 173.458C163.089 172.517 159.476 172.892 156.361 174.509L133.219 186.53V203.679L189.05 203.332Z" fill="#C4D9ED"/>
<path d="M133.218 154.323C133.092 153.163 178.493 129.752 194.751 121.406C195.472 121.036 196.107 120.519 196.616 119.888C197.125 119.257 197.495 118.526 197.704 117.744C197.912 116.961 197.954 116.143 197.826 115.343C197.698 114.543 197.404 113.779 196.962 113.1L196.085 111.759C195.519 110.887 194.651 110.255 193.646 109.984C192.642 109.713 191.573 109.823 190.645 110.292L168.758 121.335C166.674 122.382 164.274 122.618 162.026 121.997C159.777 121.376 157.84 119.943 156.59 117.975L133.061 79.0703L133.218 154.323Z" fill="#C4D9ED"/>
<path d="M144.984 40.2216L155.888 58.7586C156.96 60.5863 158.705 61.9219 160.751 62.4793C162.797 63.0366 164.979 62.7714 166.832 61.7404L178.233 55.3431C179.39 54.6969 180.37 53.7773 181.089 52.6648C181.807 51.5523 182.242 50.2808 182.355 48.9616C182.571 45.8351 183.417 42.7845 184.842 39.9928C185.528 38.7436 185.871 37.3351 185.835 35.9106C185.798 34.4862 185.385 33.0967 184.637 31.8838C183.912 30.7007 182.895 29.7233 181.684 29.0451C180.473 28.3669 179.108 28.0108 177.72 28.0107H151.979C150.55 28.0094 149.145 28.3858 147.907 29.1018C146.67 29.8178 145.644 30.8479 144.934 32.0877C144.224 33.3275 143.854 34.7328 143.863 36.1613C143.872 37.5898 144.258 38.9905 144.984 40.2216Z" fill="#C4D9ED"/>
<path d="M245.482 47.5256V92.0935C243.197 84.2187 239.907 76.6707 235.691 69.636C235.016 68.4748 234.614 67.1755 234.516 65.8363C234.417 64.4971 234.625 63.153 235.123 61.9057C235.966 59.6701 236.513 57.3338 236.749 54.9562C236.906 53.5347 237.472 52.1888 238.376 51.0804C239.281 49.9721 240.487 49.1486 241.85 48.7089L245.482 47.5256Z" fill="#C4D9ED"/>
<path d="M241.281 123.78C243.063 121.661 244.482 119.262 245.482 116.681V141.702L240.373 130.982C239.82 129.82 239.612 128.525 239.773 127.249C239.934 125.972 240.457 124.769 241.281 123.78Z" fill="#C4D9ED"/>
<path d="M245.482 183.62V203.679H221.676L196.338 164.807C195.562 163.628 195.037 162.301 194.798 160.91C194.558 159.519 194.608 158.094 194.946 156.723C195.283 155.353 195.9 154.066 196.757 152.945C197.615 151.823 198.696 150.891 199.931 150.206L207.037 146.214C210.031 144.534 213.559 144.072 216.885 144.925C220.212 145.777 223.082 147.877 224.897 150.79L245.482 183.62Z" fill="#C4D9ED"/>
<path d="M170.029 84.6632L193.788 71.8529C194.366 71.5418 195.008 71.366 195.664 71.3387C196.321 71.3114 196.975 71.4333 197.578 71.6951C200.633 73.0282 206.816 75.4104 211.727 75.3868C212.549 75.3765 213.356 75.6003 214.056 76.0319C214.755 76.4636 215.316 77.0853 215.675 77.8242C218.37 83.2403 220.559 88.8939 222.213 94.7127C223.429 99.3509 217.293 102.214 214.49 98.3175L203.815 83.4957C203.242 82.6995 202.415 82.121 201.47 81.8545C200.525 81.5881 199.518 81.6494 198.612 82.0285L173.772 92.4724C172.79 92.886 171.69 92.924 170.683 92.5791C169.675 92.2343 168.829 91.5308 168.308 90.603C168.025 90.1014 167.845 89.5484 167.778 88.9765C167.711 88.4045 167.76 87.8251 167.92 87.272C168.08 86.7189 168.349 86.2033 168.711 85.7554C169.074 85.3074 169.522 84.9361 170.029 84.6632Z" fill="#C4D9ED"/>
<path d="M218.423 209.635H160.404C160.081 209.637 159.771 209.767 159.544 209.996C159.316 210.225 159.188 210.535 159.188 210.857C159.19 211.179 159.319 211.487 159.546 211.714C159.774 211.941 160.082 212.07 160.404 212.072H218.423C218.745 212.07 219.054 211.942 219.283 211.715C219.512 211.487 219.642 211.18 219.646 210.857C219.644 210.534 219.515 210.224 219.286 209.995C219.057 209.766 218.747 209.637 218.423 209.635Z" fill="#699FF0"/>
<path d="M218.423 214.975H160.404C160.097 215 159.811 215.139 159.603 215.365C159.394 215.591 159.278 215.887 159.278 216.194C159.278 216.501 159.394 216.797 159.603 217.023C159.811 217.249 160.097 217.388 160.404 217.413H218.423C218.591 217.426 218.76 217.405 218.92 217.35C219.08 217.294 219.227 217.207 219.351 217.092C219.475 216.978 219.574 216.839 219.642 216.684C219.71 216.53 219.745 216.363 219.745 216.194C219.745 216.025 219.71 215.858 219.642 215.703C219.574 215.549 219.475 215.41 219.351 215.295C219.227 215.181 219.08 215.093 218.92 215.038C218.76 214.983 218.591 214.962 218.423 214.975Z" fill="#699FF0"/>
<path d="M144.771 206.172C143.395 206.172 142.075 206.718 141.102 207.69C140.13 208.662 139.583 209.98 139.583 211.354C139.583 214.218 144.771 220.583 144.771 220.583C144.771 220.583 149.966 214.218 149.966 211.354C149.964 209.979 149.416 208.661 148.442 207.689C147.467 206.718 146.147 206.172 144.771 206.172ZM144.771 213.729C144.289 213.73 143.818 213.589 143.417 213.323C143.016 213.057 142.703 212.678 142.518 212.234C142.333 211.791 142.284 211.302 142.377 210.83C142.469 210.358 142.7 209.925 143.04 209.584C143.38 209.243 143.813 209.011 144.285 208.917C144.757 208.823 145.247 208.87 145.691 209.054C146.136 209.237 146.517 209.549 146.784 209.949C147.052 210.348 147.195 210.818 147.195 211.299C147.195 211.942 146.939 212.559 146.485 213.014C146.031 213.47 145.414 213.727 144.771 213.729Z" fill="#D3671E"/>
<path d="M183.191 108.651C181.815 108.651 180.494 109.197 179.52 110.169C178.546 111.14 177.998 112.458 177.996 113.834C177.996 116.697 183.191 123.063 183.191 123.063C183.191 123.063 188.379 116.697 188.379 113.834C188.379 112.459 187.832 111.141 186.859 110.169C185.886 109.197 184.567 108.651 183.191 108.651ZM183.191 116.2C182.712 116.2 182.243 116.058 181.844 115.792C181.446 115.526 181.135 115.148 180.952 114.705C180.768 114.263 180.72 113.776 180.814 113.306C180.907 112.836 181.138 112.405 181.477 112.066C181.816 111.727 182.248 111.497 182.718 111.403C183.188 111.31 183.676 111.358 184.119 111.541C184.562 111.724 184.94 112.035 185.207 112.433C185.473 112.831 185.615 113.299 185.615 113.778C185.616 114.097 185.554 114.412 185.433 114.706C185.311 115.001 185.133 115.268 184.907 115.493C184.682 115.718 184.414 115.897 184.12 116.018C183.825 116.139 183.51 116.201 183.191 116.2Z" fill="#D3671E"/>
<path d="M202.71 203.679L170.408 150.931C170.345 150.817 170.26 150.716 170.158 150.636C170.055 150.555 169.937 150.496 169.811 150.462C169.685 150.429 169.554 150.421 169.424 150.44C169.295 150.458 169.171 150.503 169.06 150.571C168.949 150.639 168.852 150.728 168.777 150.835C168.701 150.941 168.648 151.061 168.62 151.189C168.593 151.316 168.591 151.448 168.616 151.576C168.641 151.704 168.692 151.825 168.765 151.933L200.451 203.679H202.71Z" fill="#F99746"/>
<path d="M202.118 182.768C202.119 183.205 201.991 183.633 201.749 183.997C201.507 184.361 201.162 184.646 200.759 184.814C200.355 184.982 199.91 185.027 199.481 184.943C199.051 184.859 198.657 184.649 198.347 184.34C198.037 184.032 197.825 183.638 197.739 183.21C197.653 182.781 197.697 182.336 197.864 181.932C198.031 181.528 198.314 181.183 198.678 180.94C199.042 180.697 199.47 180.567 199.907 180.567C200.492 180.567 201.053 180.799 201.468 181.211C201.882 181.624 202.116 182.184 202.118 182.768Z" fill="#B64C41"/>
<path d="M199.907 177.349C198.832 177.349 197.782 177.667 196.888 178.264C195.995 178.86 195.298 179.709 194.887 180.701C194.476 181.693 194.369 182.784 194.58 183.837C194.79 184.89 195.308 185.857 196.068 186.616C196.829 187.375 197.798 187.891 198.852 188.099C199.906 188.308 200.999 188.199 201.991 187.787C202.984 187.375 203.832 186.679 204.428 185.785C205.024 184.892 205.341 183.841 205.339 182.768C205.337 181.33 204.764 179.951 203.745 178.935C202.727 177.919 201.346 177.349 199.907 177.349ZM199.907 187.217C199.026 187.217 198.165 186.956 197.433 186.467C196.701 185.978 196.13 185.283 195.793 184.47C195.456 183.657 195.367 182.763 195.539 181.9C195.711 181.037 196.135 180.244 196.758 179.622C197.381 179 198.174 178.576 199.038 178.404C199.902 178.233 200.797 178.321 201.611 178.658C202.425 178.994 203.12 179.564 203.61 180.296C204.099 181.028 204.36 181.888 204.36 182.768C204.36 183.948 203.891 185.079 203.056 185.914C202.221 186.748 201.088 187.217 199.907 187.217Z" fill="#B64C41"/>
<path d="M90.8652 38.1626V39.8349C90.8652 39.8349 91.3232 45.049 84.8881 45.8141C78.4529 46.5793 73.1864 46.4767 73.3601 42.4459C73.9444 39.2906 74.9393 34.4947 75.0262 31.9152C75.0396 30.8589 74.963 29.8033 74.7972 28.76L87.2568 28.5076L90.9205 29.1071L90.8652 38.1626Z" fill="#FFB27D"/>
<path d="M90.9124 29.1386L90.865 38.1626C89.462 38.821 87.9303 39.1605 86.3801 39.1565C80.6478 39.1565 76.9525 34.9601 75.018 31.9152C75.0315 30.8589 74.9549 29.8033 74.7891 28.76L87.2487 28.5076L90.9124 29.1386Z" fill="#E2915A"/>
<path d="M73.8339 26.7879C75.2788 34.5577 85.3144 34.3052 89.6255 33.8162C90.8415 33.6821 91.6153 33.5243 91.6153 33.5243C92.9891 33.1615 93.755 30.9922 94.1104 28.1525C94.821 22.5362 93.9288 14.2931 92.9813 12.1869C91.5521 9.03168 88.8596 5.58457 78.7688 8.06144C68.6779 10.5383 71.9783 16.8252 73.8339 26.7879Z" fill="#FFB27D"/>
<path d="M65.6143 256.924H79.8268C79.5825 255.196 79.2023 253.489 78.6898 251.821C78.4813 251.12 78.2172 250.436 77.9002 249.777C76.5184 247.017 67.7303 248.768 67.7303 248.768C67.7303 248.768 66.9408 249.47 66.2775 252.136C65.9214 253.71 65.6995 255.312 65.6143 256.924Z" fill="#233862"/>
<path d="M108.607 252.436C108.607 254.368 108.892 256.198 109.594 256.924H137.727C137.372 255.907 136.361 254.376 133.471 253.911C130.187 253.374 125.07 251.797 122.086 248.642C121.001 247.539 120.239 246.162 119.883 244.658C118.556 238.766 108.931 246.457 108.931 246.457C108.698 248.441 108.59 250.438 108.607 252.436Z" fill="#233862"/>
<path d="M89.8864 188.786C90.2283 190.5 90.4656 192.234 90.597 193.977C91.4893 211.409 105.283 251.268 107.755 252.199C111.568 253.635 117.577 250.574 120.728 249.572C121.366 249.386 121.912 248.97 122.26 248.404C122.609 247.839 122.735 247.165 122.615 246.512C115.785 215.141 113.274 169.997 112.35 143.225C112.144 135.56 111.214 127.933 109.571 120.444C109.571 120.444 75.9266 111.483 75.7292 122.81C75.5713 132.86 86.8939 172.229 89.8864 188.786Z" fill="#2B478B"/>
<path d="M89.8866 188.786L112.366 143.225C112.16 135.56 111.23 127.933 109.587 120.444C109.587 120.444 75.9425 111.483 75.7451 122.81C75.5714 132.86 86.8941 172.229 89.8866 188.786Z" fill="#233862"/>
<path d="M97.372 122.866L79.5906 251.631C79.5906 251.631 71.7816 253.517 65.7097 252.01C65.7097 252.01 60.4985 183.525 60.9327 166.968C61.367 150.411 57.1901 122.66 61.9276 119.6C66.6651 116.539 97.372 122.866 97.372 122.866Z" fill="#2B478B"/>
<path d="M96.1162 4.78804C92.7652 4.40981 89.4908 3.52684 86.4043 2.16918C82.1485 0.315468 76.7714 2.35061 75.0264 3.27352C75.0875 2.89614 75.2332 2.53747 75.4528 2.2244C75.0107 2.5495 74.6953 3.01792 74.5606 3.5496C74.4816 3.6127 74.4421 3.65215 74.4658 3.66793C73.9787 3.57685 73.4764 3.60939 73.0051 3.76258C73.0051 3.76258 73.4078 3.70736 73.5499 3.95978C73.5666 3.98701 73.588 4.01105 73.6131 4.03077C66.9648 7.24124 66.3568 17.7324 68.4887 20.162C71.0627 23.0806 74.15 29.6277 74.15 29.6277C74.8874 28.3865 75.1218 26.9106 74.8054 25.5022C74.3395 22.9307 76.5582 22.9307 79.3691 21.7633C82.1801 20.5958 79.835 17.3223 82.2906 15.3345C84.7462 13.3466 93.7554 14.5456 93.6369 12.968C96.9769 11.8164 96.1162 5.12723 96.1162 4.78804Z" fill="#004170"/>
<path d="M71.8368 44.6863L75.9347 132.457C75.9347 132.457 110.108 133.01 109.097 125.287C108.087 117.565 96.7797 47.3761 96.7797 47.3761L71.8052 44.6863H71.8368Z" fill="#E9F3FE"/>
<path d="M59.6375 94.4365C61.6668 100.526 57.8373 120.972 56.4792 127.906C56.1791 129.365 55.9818 130.233 55.9818 130.233C60.7193 137.924 78.0427 137.829 78.0427 137.829C81.3748 123.11 83.1118 99.6663 83.1118 99.6663L69.8232 41.4204L53.084 56.8732C53.084 56.8732 54.3552 66.2995 55.9186 75.8915C57.1345 83.4799 58.54 91.2024 59.6375 94.4365Z" fill="#22407A"/>
<path d="M88.0781 28.0658C88.0781 28.0658 88.4019 29.0676 90.9364 28.7047C90.9364 28.7047 93.0604 28.3971 92.9025 27.277C91.2519 26.9415 89.5355 27.2222 88.0781 28.0658Z" fill="white"/>
<path d="M107.289 45.9405C108.078 46.7293 130.905 68.8555 135.327 77.493C139.748 86.1305 114.758 103.8 114.758 103.8C113.891 104.143 112.954 104.275 112.026 104.186C113.21 113.905 114.537 122.873 113.747 126.707C112.326 133.625 105.923 135.944 105.923 135.384C105.923 135.21 104.272 110.142 102.306 97.2054C97.9556 68.5637 92.7207 41.6021 92.7207 41.6021C97.7763 42.2669 102.694 43.7314 107.289 45.9405ZM120.869 81.374C120.884 81.3304 120.884 81.2834 120.869 81.2399C120.869 79.9778 116.037 77.1775 110.802 73.8803L110.707 73.7777C110.813 76.3778 110.786 78.9816 110.628 81.5791C110.422 86.7743 110.62 91.9777 111.221 97.1423C113.724 93.2061 120.356 82.7781 120.869 81.374Z" fill="#22407A"/>
<path d="M70.873 41.3177C70.8256 40.4816 74.8209 39.322 74.8209 39.322C74.8209 39.322 79.3689 45.6325 86.8541 45.7272C86.8541 45.7272 84.7223 49.8763 82.2114 50.9491C82.1877 50.9491 71.1177 46.2951 70.873 41.3177Z" fill="#D9E9F9"/>
<path d="M97.3476 105.038C97.1661 107.089 96.2258 108.999 94.7103 110.394L92.3416 112.587C92.2004 112.717 92.0338 112.817 91.8522 112.879C91.6707 112.942 91.4781 112.966 91.2867 112.95C91.0953 112.935 90.9092 112.88 90.7401 112.789C90.5711 112.698 90.4227 112.573 90.3045 112.422L87.3514 108.683C86.5567 107.679 86.1831 106.406 86.3092 105.133C86.5855 102.301 87.0988 96.8346 87.5093 91.5654C87.841 87.2979 88.1094 83.1487 88.1331 80.6245C88.1963 72.5708 86.554 46.8792 86.554 46.8792L88.4884 46.9817C91.8616 54.5071 94.319 62.4096 95.8079 70.5198C96.4638 74.016 96.9094 77.5484 97.1423 81.0978C97.1423 81.0978 98.1766 95.7855 97.3476 105.038Z" fill="#DA291C"/>
<path d="M97.3476 105.038C97.1661 107.089 96.2258 108.999 94.7103 110.394L92.3416 112.587C92.2004 112.717 92.0338 112.817 91.8522 112.879C91.6707 112.942 91.4781 112.966 91.2867 112.95C91.0953 112.935 90.9092 112.88 90.7401 112.789C90.5711 112.698 90.4227 112.573 90.3045 112.421L87.3514 108.683C86.5567 107.679 86.1831 106.406 86.3092 105.133C86.5855 102.301 87.0988 96.8346 87.5093 91.5653C92.8548 85.5703 95.0183 77.2878 95.8473 70.5198C96.5033 74.016 96.9489 77.5483 97.1817 81.0978C97.1817 81.0978 98.1766 95.7854 97.3476 105.038Z" fill="#B8160A"/>
<path d="M86.8306 45.5774C86.8306 45.5774 90.7785 43.211 90.7785 40.6868C90.7785 40.6868 93.3367 40.3633 94.4579 41.6018C94.4579 41.6018 95.3975 45.9718 94.15 48.5039C94.1895 48.5039 88.4729 47.6362 86.8306 45.5774Z" fill="#D9E9F9"/>
<path d="M84.1384 45.1989L89.5234 43.9131C89.6315 43.9262 89.7357 43.9615 89.8294 44.0167C89.9232 44.072 90.0045 44.146 90.0683 44.2341C90.1321 44.3223 90.1769 44.4227 90.2 44.5289C90.2231 44.6352 90.2239 44.7451 90.2024 44.8518C90.2024 45.7274 88.6864 48.2831 88.0232 48.4882C87.3599 48.6933 82.8672 46.9737 84.1384 45.1989Z" fill="#B8160A"/>
<path d="M71.497 40.8842C71.4575 40.0481 74.1421 38.3206 74.1421 38.3206C74.1421 38.3206 79.3455 44.3944 86.8307 44.5048C86.8307 44.5048 84.6988 48.654 82.188 49.7268C82.188 49.7268 71.7418 45.8774 71.497 40.8842Z" fill="#E9F3FE"/>
<path d="M86.8306 44.5047C86.8306 44.5047 90.8495 42.3828 90.8574 39.835C92.1582 40.4023 93.356 41.1806 94.4027 42.1383C94.9917 43.8679 94.9157 45.7545 94.1895 47.4312C94.1895 47.4312 88.4729 46.5635 86.8306 44.5047Z" fill="#E9F3FE"/>
<path d="M116.408 105.283C116.413 104.754 116.304 104.23 116.088 103.747C115.873 103.264 115.556 102.833 115.159 102.483C114.762 102.133 114.295 101.872 113.789 101.718C113.282 101.564 112.748 101.521 112.224 101.591C111.917 101.62 111.618 101.71 111.347 101.856C111.076 102.002 110.837 102.202 110.645 102.443C109.121 104.47 107.676 110.331 110.376 110.639C111.474 110.757 112.879 109.984 113.969 109.156C115.058 108.328 116.385 107.01 116.385 105.622L116.408 105.283Z" fill="#FFB27D"/>
<path d="M56.4713 127.914C61.3667 122.818 69.839 112.792 69.5389 104.565C69.1362 93.0484 55.9028 75.8997 55.9028 75.8997C57.1346 83.488 58.54 91.2105 59.6376 94.4446C61.6668 100.526 57.8373 120.972 56.4713 127.914Z" fill="#233862"/>
<path d="M56.621 107.862C56.621 107.862 60.1504 109.621 62.2823 108.738C64.4142 107.854 66.9408 107.199 69.3333 109.921C71.7257 112.642 72.2231 114.52 71.702 115.529C71.1809 116.539 65.6301 116.152 64.7063 115.529C63.7825 114.906 62.3376 113.352 61.3901 113.62C58.8318 114.362 56.6525 112.414 55.4682 110.86C54.7575 109.921 56.7157 109.471 56.621 107.862Z" fill="#FFB27D"/>
<path d="M69.8231 41.4204C69.8231 41.4204 55.7922 42.998 52.4523 49.0798C49.1124 55.1615 31.9231 79.9145 32.4995 90.2006C33.0759 100.487 55.9659 112.003 55.9659 112.003C55.9659 112.003 61.043 109.866 61.114 107.562C61.1851 105.259 45.3224 91.4863 46.2462 88.9148C47.17 86.3433 64.7303 66.0392 66.42 59.3107C68.1097 52.5821 69.8231 41.4204 69.8231 41.4204Z" fill="#22407A"/>
<path d="M110.74 73.754L110.834 73.8566C116.069 77.1538 120.901 79.9541 120.901 81.2162C121.604 78.9838 114.806 69.6601 112.603 67.759C110.4 65.858 110.74 73.754 110.74 73.754Z" fill="#233862"/>
<path d="M74.1422 38.3206C74.1422 38.3206 84.7936 82.8885 83.096 99.6744C83.096 99.6744 79.1481 81.7368 69.76 67.0412C69.76 67.0412 73.1947 64.0201 73.013 62.9078C71.374 62.4645 69.6587 62.3784 67.9834 62.6554C67.9834 62.6554 68.244 43.4478 69.8231 41.4206C70.9937 40.0569 72.4749 38.9937 74.1422 38.3206Z" fill="#233862"/>
<path d="M90.8574 39.835C90.7152 39.8981 101.414 83.3853 102.314 97.2999C102.314 97.2999 101.248 72.4602 101.351 65.3057C101.351 65.3057 96.9293 62.9393 96.9293 62.1505C96.9293 61.3617 101.667 59.1135 101.667 59.1135C101.667 59.1135 98.6742 43.8185 97.0477 42.1304C95.4212 40.4423 90.8574 39.835 90.8574 39.835Z" fill="#233862"/>
<path d="M389.755 228.251L385.87 244.587L380.051 244.555L379.837 228.251H389.755Z" fill="#FFB27D"/>
<path d="M340.089 228.953L329.043 244.587L324.732 239.065L331.38 226.799L340.089 228.953Z" fill="#FFB27D"/>
<path d="M386.067 243.68C385.824 245.939 386.077 248.225 386.809 250.377C386.809 250.377 387.757 254.707 383.485 254.786C379.213 254.865 378.171 254.463 378.653 251.812C379.134 249.162 380.058 244.555 380.058 244.555L386.067 243.68Z" fill="#FFB27D"/>
<path d="M378.25 256.916H387.117C387.599 254.645 386.809 250.377 386.809 250.377C381.969 254.999 378.913 250.267 378.913 250.267C378.155 252.239 378.25 256.916 378.25 256.916Z" fill="#D57912"/>
<path d="M314.444 252.444C314.444 252.444 322.34 243.514 324.708 239.034L330.567 242.031L317.476 254.313L314.412 253.911L314.444 252.444Z" fill="#FFB27D"/>
<path d="M309.612 256.9H320.54C321.495 256.033 322.419 254.289 323.54 252.002C324.188 250.684 325.625 249.967 327.109 249.572V256.9H329.367L331.46 249.107C332.857 246.496 331.807 244.098 330.828 242.008C329.683 242.008 326.375 242.796 320.563 249.501C319.839 250.427 318.909 251.172 317.847 251.677C316.785 252.182 315.62 252.434 314.444 252.412L314.357 252.459C311.041 254.005 309.959 255.875 309.612 256.9Z" fill="#D57912"/>
<path d="M371.002 34.6762C371.007 34.6369 371.007 34.5971 371.002 34.5579C370.995 34.5401 370.995 34.5204 371.002 34.5026C371.231 33.7138 371.499 32.925 371.791 32.1362V31.9784C372.573 29.7683 373.502 27.6126 374.571 25.526C375.171 24.3822 375.763 23.3173 376.363 22.3707C376.45 22.2287 376.537 22.0867 376.631 21.9605C376.658 21.9104 376.693 21.865 376.734 21.8264C376.773 21.7502 376.821 21.6787 376.876 21.6135C377.424 20.7803 378.054 20.0035 378.755 19.2943C379.295 18.7109 379.963 18.26 380.706 17.977C382.776 17.4089 384.965 17.4334 387.022 18.048C386.72 17.6569 386.319 17.3522 385.862 17.1646C386.936 17.2198 389.067 18.7422 389.067 18.7422C394.144 17.8745 396.805 19.1366 398.771 22.0236C399.799 23.5336 400.527 25.2257 400.919 27.0089C401.21 28.1818 401.421 29.373 401.551 30.5744C402.064 35.4571 401.969 40.8289 401.424 42.8325C400.122 47.7547 404.993 50.4288 411.784 55.8716C424.725 66.2681 423.967 76.5463 423.967 76.5463C423.849 76.6016 423.722 76.6331 423.58 76.7041C423.106 75.3552 422.088 72.76 420.911 72.1763C421.339 73.9146 421.679 75.6732 421.93 77.4456C417.287 79.6937 408.649 84.7894 402.19 88.6862C401.78 88.9149 401.401 89.1595 401.006 89.3882C401.307 88.3383 401.399 87.2393 401.274 86.1541L399.743 90.1455C398.321 91.021 397.05 91.7783 396.071 92.3936L393.781 93.7977C393.906 92.9529 393.816 92.0904 393.521 91.2893C393.214 90.2879 392.856 89.3031 392.447 88.3391C390.397 83.5959 388.023 78.9994 385.341 74.5822L384.685 73.5331C381.838 68.7687 378.673 64.2016 375.21 59.863C374.314 58.7637 373.363 57.7106 372.36 56.7077L372.257 56.6052C371.873 55.6469 371.595 54.6498 371.428 53.6313C371.024 51.1525 370.889 48.6375 371.025 46.1297C370.674 48.623 370.621 51.1492 370.867 53.655C370.931 54.2402 371.037 54.8202 371.183 55.3904C370.793 54.8584 370.47 54.281 370.22 53.6708C368.151 48.9616 368.957 41.531 371.002 34.6762Z" fill="#004170"/>
<path d="M374.507 58.2697C374.46 58.2697 379.284 60.7939 382.916 59.8C386.327 58.8692 388.562 54.4518 388.514 54.4361C387.062 54.1521 386.651 52.1643 386.683 43.6372L386.027 43.7634L375.036 45.9405C375.036 45.9405 375.289 49.3955 375.297 52.6533C375.305 55.3826 375.139 57.9778 374.507 58.2697Z" fill="#FFB27D"/>
<path d="M375.036 45.9405C375.036 45.9405 375.289 49.3955 375.297 52.6533C381.44 52.4798 384.693 46.8713 386.027 43.7634L375.036 45.9405Z" fill="#EF9E67"/>
<path d="M388.286 44.15C388.286 44.15 392.455 39.8036 394.073 35.6939C395.226 32.7595 395.953 21.164 384.275 20.5014C381.924 20.358 379.571 20.7435 377.389 21.6294C374.594 22.7968 370.283 25.6681 372.304 36.3171L372.66 39.851L388.286 44.15Z" fill="#004170"/>
<path d="M325.411 234.238C325.411 234.238 328.325 234.742 330.725 234.924C331.254 234.924 331.767 234.987 332.209 234.987C333.772 234.863 335.321 234.599 336.836 234.198H336.939L338.194 233.883H338.273C338.273 233.883 352.833 217.688 361.006 191.721C361.195 191.113 361.392 190.506 361.606 189.891C366.075 176.867 375.344 160.515 380.232 145.717C381.021 143.351 381.708 141.142 382.332 139.044C382.53 138.365 382.727 137.711 382.909 137.056C385.713 127.436 387.59 117.571 388.515 107.594L359.15 115.064C359.15 115.064 346.817 168.451 325.411 234.238Z" fill="#6BB7BF"/>
<path d="M373.118 47.676C373.118 47.676 387.331 50.7839 389.131 41.9097C390.931 33.0356 393.979 27.4666 384.978 25.108C375.976 22.7495 373.521 25.7706 372.202 28.5867C370.884 31.4028 369.462 46.6663 373.118 47.676Z" fill="#FFB27D"/>
<path d="M378.55 23.5776C378.55 23.5776 380.351 34.7787 386.036 37.5238C391.721 40.2688 394.642 39.1882 394.642 39.1882C394.642 39.1882 392.897 35.1337 393.229 28.5707C393.205 28.5707 382.498 19.2154 378.55 23.5776Z" fill="#004170"/>
<path d="M379.339 24.6188C379.339 24.6188 375.952 26.3542 374.784 28.4761C373.615 30.598 372.36 35.181 371.033 34.7471C371.033 34.7471 369.525 27.0799 373.639 23.7432C377.981 20.2014 379.339 24.6188 379.339 24.6188Z" fill="#004170"/>
<path d="M330.725 234.924C331.254 234.924 331.767 234.987 332.21 234.987C333.772 234.863 335.321 234.599 336.836 234.198H336.939L338.195 233.883H338.274C338.274 233.883 352.833 217.689 361.006 191.721C361.195 191.113 361.393 190.506 361.606 189.891C366.075 176.867 375.344 160.515 380.232 145.717C381.022 143.351 381.709 141.142 382.332 139.044C382.53 138.366 382.727 137.711 382.909 137.056L377.721 133.112C377.721 133.112 362.127 158.354 357.302 182.074C353.284 201.755 336.071 227.304 330.725 234.924Z" fill="#599DAD"/>
<path d="M377.176 184.29C377.089 195.839 377.674 222.374 379.174 233.362C379.174 233.362 380.603 234.624 384.14 234.64C387.678 234.656 389.391 233.323 389.391 233.323C393.165 214.218 395.85 198.41 397.808 184.787C399.387 173.61 400.832 164.026 401.93 155.775C402.901 148.47 403.612 142.199 403.959 136.804C404.006 136.073 404.046 135.355 404.077 134.65C404.114 133.725 404.146 132.826 404.172 131.953C404.172 131.077 404.172 130.217 404.172 129.389H404.046L396.75 128.679L373.702 126.431C374.097 146.648 377.224 177.609 377.176 184.29Z" fill="#6BB7BF"/>
<path d="M384.141 234.64C385.985 234.749 387.818 234.289 389.391 233.323C393.166 214.218 395.85 198.41 397.808 184.787C399.388 173.61 400.832 164.026 401.93 155.775C402.901 148.47 403.612 142.199 403.959 136.804C403.999 134.137 404.022 131.59 404.054 129.381C404.086 127.172 404.125 125.24 404.188 123.922L396.758 128.655L388.949 133.648C388.949 133.648 400.003 143.722 397.311 162.763C394.618 181.805 387.931 231.942 384.141 234.64Z" fill="#599DAD"/>
<path d="M375.747 53.363C375.747 53.363 366.272 52.1876 362.285 56.1396C357.413 60.9829 348.262 88.7491 348.625 91.9201C348.767 93.127 353.575 92.5669 355.218 90.8394C363.437 82.2335 372.857 59.7997 375.747 53.363Z" fill="#DA291C"/>
<path d="M355.091 131.59C363.934 133.885 405.198 138.421 405.553 128.095C405.64 125.579 405.553 122.534 405.356 119.245C404.74 109.045 403.066 96.4401 402.261 89.5064C401.898 86.3512 403.122 72.0894 402.182 64.3354C402.076 63.3319 401.884 62.3395 401.606 61.3695C399.829 55.5165 391.815 53.9231 387.709 53.7811L375.304 53.363C375.304 53.363 362.49 67.6563 360.713 72.05C358.936 76.4437 358.344 91.4785 356.962 98.7592C355.581 106.04 350.796 130.477 355.091 131.59Z" fill="#DA291C"/>
<path d="M379.466 96.7002C379.466 96.7002 386.359 117.856 405.396 119.237C404.78 109.037 403.106 96.432 402.301 89.4984C401.938 86.3431 403.161 72.0814 402.222 64.3274C401.969 64.3747 401.748 64.5167 401.487 64.564C380.532 68.6106 377.563 92.2908 379.466 96.7002Z" fill="#B8160A"/>
<path d="M349.225 92.4171C349.225 92.4171 361.676 96.4953 376.86 89.9482C376.86 89.9482 380.997 89.5617 383.042 90.0823C383.042 90.0823 382.608 85.9883 380.603 84.8761C378.597 83.7639 369.967 86.1698 367.393 85.8148C361.74 85.0654 351.917 84.458 349.225 92.4171Z" fill="#EF9E67"/>
<path d="M360.319 82.9515C360.319 82.9515 359.15 72.839 363.114 66.7493C362.652 66.6403 362.167 66.6901 361.738 66.8905C361.308 67.0909 360.958 67.4302 360.745 67.8537C359.735 69.4313 352.747 84.4582 356.071 85.5625C359.395 86.6668 360.319 82.9515 360.319 82.9515Z" fill="#B8160A"/>
<path d="M378.503 84.6001C378.677 84.6001 384.377 85.3416 385.388 86.0594C386.399 86.7772 385.507 89.262 383.612 89.4986C381.717 89.7353 378.503 84.6001 378.503 84.6001Z" fill="#EF9E67"/>
<path d="M394.089 88.473C383.699 88.0105 373.351 86.8589 363.114 85.0259C363.114 85.0259 360.422 85.0259 360.745 87.3923C361.069 89.7588 386.272 102.861 391.815 100.305L394.089 88.473Z" fill="#FFB27D"/>
<path d="M363.114 84.9867C363.114 84.9867 361.392 82.9121 360.318 82.9121C359.245 82.9121 356.457 84.2768 356.039 85.5231C355.62 86.7694 359.347 85.878 360.737 87.361C362.127 88.844 363.114 84.9867 363.114 84.9867Z" fill="#FFB27D"/>
<path d="M387.71 53.7654C387.71 53.7654 401.354 53.7654 403.351 58.7033C406.975 67.6564 394.99 97.3236 391.815 100.305C390.457 101.599 384.141 99.5638 384.141 91.021C384.141 86.6115 384.464 60.7227 387.71 53.7654Z" fill="#DA291C"/>
<mask id="mask0_211_299" style="mask-type:luminance" maskUnits="userSpaceOnUse" x="132" y="21" width="113" height="208">
<path d="M244.413 21.1323H132V228.448H244.413V21.1323Z" fill="white"/>
</mask>
<g mask="url(#mask0_211_299)">
<path d="M248.837 162.748L225.497 124.538C230.594 121.141 234.202 115.931 235.588 109.969C239.875 92.307 226.61 69.6129 222.165 62.7186C224.184 60.7665 225.646 58.3114 226.399 55.6066C227.152 52.9018 227.168 50.0453 226.447 47.3319C225.726 44.6184 224.293 42.1464 222.296 40.171C220.3 38.1955 217.811 36.7881 215.089 36.094C212.366 35.3999 209.507 35.4443 206.807 36.2226C204.107 37.0009 201.663 38.4848 199.729 40.5213C197.795 42.5578 196.439 45.0731 195.803 47.8076C195.167 50.5421 195.272 53.3967 196.109 56.0768C179.133 65.9054 160.806 76.2468 154.324 79.473L131.726 41.6731C130.794 40.0955 131.971 45.0493 130.415 45.9801C129.671 46.4272 129.135 47.151 128.925 47.9925C128.715 48.834 128.848 49.7245 129.294 50.4684L158.414 98.9646C159.96 101.546 162.443 103.432 165.347 104.23C168.25 105.028 171.35 104.676 174 103.248L192.508 93.2851C193.773 92.6039 195.252 92.4327 196.64 92.8069C198.027 93.181 199.219 94.0719 199.97 95.2966L216.385 122.179C183.373 139.659 135.934 164.602 132.279 166.029C131.479 166.267 130.801 166.802 130.383 167.524C129.966 168.245 129.842 169.1 130.036 169.91C130.392 171.409 128.181 174.817 129.665 174.817C129.918 174.817 128.599 174.683 128.876 174.62C129.705 174.422 136.084 171.851 179.662 148.952C196.551 140.085 213.4 131.172 219.828 127.772L248.711 174.73C249.326 175.74 244.968 167.717 246.066 167.717C246.668 167.723 247.26 167.556 247.771 167.236C248.507 166.782 249.033 166.054 249.233 165.212C249.433 164.371 249.29 163.485 248.837 162.748ZM211.205 42.1859C213.034 42.1843 214.821 42.7247 216.342 43.7385C217.862 44.7524 219.047 46.1941 219.747 47.8813C220.447 49.5685 220.631 51.4252 220.274 53.2164C219.917 55.0077 219.036 56.6528 217.743 57.9437C216.45 59.2346 214.802 60.1131 213.009 60.4681C211.216 60.823 209.357 60.6385 207.669 59.9378C205.981 59.237 204.538 58.0517 203.525 56.5317C202.511 55.0118 201.972 53.2255 201.975 51.3992C201.981 48.9562 202.956 46.6152 204.686 44.8885C206.416 43.1618 208.76 42.19 211.205 42.1859ZM189.405 87.5268L170.889 97.4895C169.722 98.1175 168.356 98.2712 167.078 97.9186C165.8 97.5659 164.707 96.734 164.028 95.5963L157.711 85.0815C161.012 83.425 167.241 80.0646 179.456 73.1546C187.597 68.5401 195.572 63.9492 199.322 61.78C201.426 64.1895 204.213 65.9037 207.313 66.6954C210.414 67.4871 213.682 67.3189 216.685 66.2131C219.494 70.6389 221.988 75.257 224.147 80.0331C227.7 87.9606 231.474 99.3274 229.255 108.43C228.286 112.698 225.751 116.447 222.149 118.937L205.623 91.8889C204 89.2174 201.409 87.2735 198.389 86.4611C195.369 85.6487 192.151 86.0304 189.405 87.5268Z" fill="#F99746"/>
<path d="M221.494 46.3585C221.32 46.365 221.148 46.3235 220.996 46.2386C220.844 46.1537 220.719 46.0287 220.634 45.8773C220.509 45.6545 220.478 45.3914 220.548 45.1458C220.617 44.9003 220.782 44.6924 221.005 44.5679L246.998 30.0617C247.221 29.9372 247.484 29.9063 247.73 29.9759C247.976 30.0454 248.184 30.2096 248.308 30.4324C248.429 30.6561 248.457 30.9178 248.388 31.1622C248.319 31.4065 248.157 31.6144 247.937 31.7418L221.944 46.2481C221.805 46.3187 221.651 46.3565 221.494 46.3585Z" fill="#F99746"/>
</g>
<path d="M586.21 258.312H0.750105C0.547612 258.302 0.356778 258.215 0.217136 258.068C0.0774943 257.921 -0.000252966 257.726 6.18379e-07 257.523C-0.000252966 257.321 0.0774943 257.126 0.217136 256.979C0.356778 256.832 0.547612 256.745 0.750105 256.735H586.21C586.42 256.735 586.621 256.818 586.769 256.966C586.917 257.114 587 257.314 587 257.523C587 257.733 586.917 257.933 586.769 258.081C586.621 258.229 586.42 258.312 586.21 258.312Z" fill="#2E3552"/>
</svg>
