<svg width="244" height="243" viewBox="0 0 244 243" fill="none" xmlns="http://www.w3.org/2000/svg">
<path d="M215.181 1L205.393 4.091L201.271 10.5306L189.68 10.273L173.324 37.7057L165.725 40.4103L164.566 44.2741L161.088 47.2363L157.482 46.5923L138.55 58.0548L132.883 67.7142L130.178 66.9415H123.61L101.586 64.3656L92.6998 66.1687L73.6386 48.3954L68.6157 47.3651L61.017 44.6604L51.2288 54.7062L43.6301 52.7743L35.5162 66.6839L31.9101 61.661L25.4705 63.0777L20.0612 58.4412L8.85629 53.5471L1 62.0474L3.83342 70.934L2.93188 71.5779L18.7733 75.1841L36.6754 82.9116L37.4481 94.5029L31.5237 104.806L26.5008 109.572L24.6977 112.663L20.0612 114.981L24.6977 130.822L78.4039 130.436L83.8132 136.231L86.5178 150.914L94.6317 157.096L96.5636 163.535L98.7531 191.483L100.685 191.354L108.541 191.87L114.981 187.491L122.451 189.423L128.118 184.4L149.111 177.574L160.702 179.377L163.278 184.4L166.498 182.597L173.839 190.968L175.384 189.423L191.998 200.627L191.612 204.62L216.211 221.234V228.447L217.37 232.053L234.371 241.197L237.204 233.212L229.863 209.9L220.461 187.491L227.159 184.142L230.894 173.71L215.954 172.551L218.143 157.74L209.385 150.012L215.052 144.217L230.121 138.55L229.734 130.693L234.371 124.511L235.144 123.867L232.568 121.163L235.144 103.647L243 98.6242V91.6695L237.977 87.5482L234.886 75.0553L215.439 44.6604L215.052 40.6679L222.78 38.3497L225.999 31.0085L222.908 15.2959L219.689 13.7504L215.181 1Z" fill="#FBFBFB"/>
<path d="M205.393 4.091L201.271 10.5306L189.68 10.273L173.324 37.7057L165.725 40.4103L164.566 44.2741L161.088 47.2363L157.482 46.5923L138.55 58.0548L132.883 67.7142L130.178 66.9415H123.61L101.586 64.3656L92.6998 66.1687L73.6386 48.3954L68.6157 47.3651L61.017 44.6604L51.2288 54.7062L43.6301 52.7743L35.5162 66.6839L31.9101 61.661L25.4705 63.0777L20.0612 58.4412L8.85629 53.5471L1 62.0474L3.83342 70.934L2.93188 71.5779L18.7733 75.1841L36.6754 82.9116L37.4481 94.5029L31.5237 104.806L26.5008 109.572L24.6977 112.663L20.0612 114.981L24.6977 130.822L78.4039 130.436L83.8132 136.231L86.5178 150.914L94.6317 157.096L96.5636 163.535L98.7531 191.483L100.685 191.354L108.541 191.87L114.981 187.491L122.451 189.423L128.118 184.4L149.111 177.574L160.702 179.377L163.278 184.4L166.498 182.597L173.839 190.968L175.384 189.423L191.998 200.627L191.612 204.62L216.211 221.234V228.447L217.37 232.053L234.371 241.197L237.204 233.212L229.863 209.9L220.461 187.491L227.159 184.142L230.894 173.71L215.954 172.551L218.143 157.74L209.385 150.012L215.052 144.217L230.121 138.55L229.734 130.693L234.371 124.511L235.144 123.867L232.568 121.163L235.144 103.647L243 98.6242V91.6695L237.977 87.5482L234.886 75.0553L215.439 44.6604L215.052 40.6679L222.78 38.3497L225.999 31.0085L222.908 15.2959L219.689 13.7504L215.181 1L205.393 4.091Z" stroke="#004170" stroke-width="2" stroke-miterlimit="10" stroke-linecap="round" stroke-linejoin="round"/>
</svg>
