<svg width="202" height="256" viewBox="0 0 202 256" fill="none" xmlns="http://www.w3.org/2000/svg">
<path d="M195.175 66.4138L193.716 61.9001L195.565 59.7519V56.2263L187.181 54.7218L188.469 52.2292V50.807L187.698 46.9371L185.504 43.7109L182.024 41.907L175.571 40.657L174.112 38.3365L175.444 33.007L174.112 29.1371L170.631 32.7525L164.74 30.5144L161.26 35.4996L159.456 33.007L154.815 35.3724L149.657 35.7616L148.886 36.8769L144.111 32.0189L140.84 27.7149L138.175 28.3587L134.522 26.8092L131.94 27.3257L131.341 26.2104L128.976 25.911L126.955 27.2883L120.502 19.3763L120.375 19.8928L120.974 17.782L119.552 16.8763L113.017 22.8121L112.59 27.932L109.11 28.4934L107.343 29.953L106.699 30.0354L107.56 27.5877L106.827 23.845L104.761 22.4228L108.503 13.0064L102.395 10.0796L102.313 10.2069L102.231 8.2682L97.8893 5.38637L95.7785 5.43128L90.9205 6.98073L91.6092 9.30116L90.2768 12.4824L88.9893 12.6096L84.2137 12.5273L81.3768 10.3341L79.2285 13.5154L79.1013 16.225L75.1042 15.9705L74.1984 15.237L72.0053 17.3853L64.3927 12.6546L65.3808 9.25625L62.9331 6.67383L58.674 3.83692L52.4837 2.80395L45.6496 5.55853L44.1002 6.63641L41.5627 1.65121L39.0701 2.04045L33.3513 4.23364L30.2974 6.72623L26.682 5.82051L20.1847 7.32505L19.0245 2.76652L17.4751 1L18.0365 3.58242L15.4541 10.8506L11.0677 13.6426L8.48527 12.7818L4.74263 8.99427L1 12.7369L2.03297 13.5528L1.21708 16.0903L3.19319 19.5335L3.53751 23.4483L7.06307 26.5472L8.35054 28.0068L7.57956 30.0279L9.12901 31.6222L6.63641 37.2586L4.22615 38.0745L6.50168 43.6211L8.44036 41.9444H12.4375L16.0903 40.3501L17.4676 42.416L18.7551 42.4609L12.692 47.3188L14.1142 52.3489L16.6068 52.1319L14.1142 56.9898H14.1591L16.6068 59.9989L15.7011 62.4091L17.2056 64.6023L19.526 63.4421L23.4408 64.7296L24.9454 69.0336L23.3959 70.5831L29.7584 76.9904L25.1175 83.9967L28.3437 87.3051L28.5608 86.1449L31.6971 87.4773L34.4891 90.0148L32.9396 95.1722L35.305 95.5988L37.4158 97.2755L37.3335 98.563L34.025 100.839L36.1359 105.741L36.0909 106.902L33.254 109.012L32.483 118.257L35.0655 122.725L33.8603 125.136L34.3768 126.812L39.5791 127.973L44.6092 132.613L43.9654 136.057L43.3217 137.651L41.9444 137.906L34.7661 147.412L36.57 147.973L33.3438 149.912L33.2166 153.138L40.657 156.102V156.23L39.2797 159.845L38.2467 166.125L43.3217 171.2C45.0882 171.073 46.8922 170.983 48.6961 170.901L48.0524 173.393L50.7621 176.103L50.1632 178.378L52.057 180.055L52.1843 182.548L54.4224 185.729L58.5542 183.708L60.7474 184.441L58.8087 185.212L60.3133 186.635L60.957 185.519L67.065 186.118L67.7985 188.484L63.4571 197.084L65.6053 198.544L65.3509 199.831L72.9634 201.897L75.4111 200.909L78.8094 202.503L79.6702 206.246L83.0236 210.034L85.3889 209.644L82.3798 220.094L82.4247 225.596L85.6509 231.441L84.8799 233.979L87.3276 236.861L86.639 238.927L88.4429 240.731L88.7423 243.178L90.9355 243.949L97.2156 243.65L98.2935 247.265L100.359 251.734L103.93 252.595L106.041 254.227L108.661 254.144L109.911 254.489L115.203 254.406L116.707 252.213L119.29 251.524L119.933 247.699L118.511 245.461L118.638 241.374L120.315 239.308L122.898 238.448L123.287 232.856L128.235 222.107L131.071 220.431L132.104 221.074L134.552 220.431L134.298 217.848L130.682 217.594L123.504 212.047L124.582 207.062L130.944 207.661L135.331 210.108L136.236 209.12L145.226 208.948L146.431 200.946L150.047 196.815L149.403 193.117L149.919 190.534L155.077 189.374L155.848 185.759L152.06 182.144L151.806 181.971L150.301 179.95L150.047 176.208L146.304 175.908L144.111 171.395L144.582 169.074L148.108 169.89L149.912 161.634L151.027 161.072L152.232 160.945L153.138 158.535H158.512L159.328 157.764L162.51 159.186L164.448 154.283L166.642 155.833L166.514 153.34L169.995 147.966L169.261 146.633L170.032 144.096L167.45 139.455L168.565 138.721L171.964 137.434L176.432 139.156L177.465 136.835L177.51 135.503L180.736 133.137L183.401 133.22L186.927 131.281L190.624 132.613L191.395 128.961L190.145 125.48L191.006 124.447L193.588 124.619L195.31 126.386L199.27 126.169L200.43 125.48L200.213 124.103L200.295 121.992L199.652 120.877L196.036 119.799L195.819 117.261L194.142 115.323L189.067 115.794L189.838 114.761L187.518 109.215L183.521 109.604L180.811 107.194L181.066 106.25L179.643 100.187L180.721 96.3623L183.304 95.9731L180.938 91.714L181.844 89.3935L180.938 86.9009L185.968 77.2225L187.256 75.935L194.09 72.2373L193.746 68.1953L195.175 66.4138Z" fill="#FBFBFB"/>
<path d="M193.716 61.9001L195.565 59.7519V56.2263L187.181 54.7218L188.469 52.2292V50.807L187.698 46.9371L185.504 43.7109L182.024 41.907L175.571 40.657L174.112 38.3365L175.444 33.007L174.112 29.1371L170.631 32.7525L164.74 30.5144L161.26 35.4996L159.456 33.007L154.815 35.3724L149.657 35.7616L148.886 36.8769L144.111 32.0189L140.84 27.7149L138.175 28.3587L134.522 26.8092L131.94 27.3257L131.341 26.2104L128.976 25.911L126.955 27.2883L120.502 19.3763L120.375 19.8928L120.974 17.782L119.552 16.8763L113.017 22.8121L112.59 27.932L109.11 28.4934L107.343 29.953L106.699 30.0354L107.56 27.5877L106.827 23.845L104.761 22.4228L108.503 13.0064L102.395 10.0796L102.313 10.2069L102.231 8.2682L97.8893 5.38637L95.7785 5.43128L90.9205 6.98073L91.6092 9.30116L90.2768 12.4824L88.9893 12.6096L84.2137 12.5273L81.3768 10.3341L79.2285 13.5154L79.1013 16.225L75.1042 15.9705L74.1984 15.237L72.0053 17.3853L64.3927 12.6546L65.3808 9.25625L62.9331 6.67383L58.674 3.83692L52.4837 2.80395L45.6496 5.55853L44.1002 6.63641L41.5627 1.65121L39.0701 2.04045L33.3513 4.23364L30.2974 6.72623L26.682 5.82051L20.1847 7.32505L19.0245 2.76652L17.4751 1L18.0365 3.58242L15.4541 10.8506L11.0677 13.6426L8.48527 12.7818L4.74263 8.99427L1 12.7369L2.03297 13.5528L1.21708 16.0903L3.19319 19.5335L3.53751 23.4483L7.06307 26.5472L8.35054 28.0068L7.57956 30.0279L9.12901 31.6222L6.63641 37.2586L4.22615 38.0745L6.50168 43.6211L8.44036 41.9444H12.4375L16.0903 40.3501L17.4676 42.416L18.7551 42.4609L12.692 47.3188L14.1142 52.3489L16.6068 52.1319L14.1142 56.9898H14.1591L16.6068 59.9989L15.7011 62.4091L17.2056 64.6023L19.526 63.4421L23.4408 64.7296L24.9454 69.0336L23.3959 70.5831L29.7584 76.9904L25.1175 83.9967L28.3437 87.3051L28.5608 86.1449L31.6971 87.4773L34.4891 90.0148L32.9396 95.1722L35.305 95.5988L37.4158 97.2755L37.3335 98.563L34.025 100.839L36.1359 105.741L36.0909 106.902L33.254 109.012L32.483 118.257L35.0655 122.725L33.8603 125.136L34.3768 126.812L39.5791 127.973L44.6092 132.613L43.9654 136.057L43.3217 137.651L41.9444 137.906L34.7661 147.412L36.57 147.973L33.3438 149.912L33.2166 153.138L40.657 156.102V156.23L39.2797 159.845L38.2467 166.125L43.3217 171.2C45.0882 171.073 46.8922 170.983 48.6961 170.901L48.0524 173.393L50.7621 176.103L50.1632 178.378L52.057 180.055L52.1843 182.548L54.4224 185.729L58.5542 183.708L60.7474 184.441L58.8087 185.212L60.3133 186.635L60.957 185.519L67.065 186.118L67.7985 188.484L63.4571 197.084L65.6053 198.544L65.3509 199.831L72.9634 201.897L75.4111 200.909L78.8094 202.503L79.6702 206.246L83.0236 210.034L85.3889 209.644L82.3798 220.094L82.4247 225.596L85.6509 231.441L84.8799 233.979L87.3276 236.861L86.639 238.927L88.4429 240.731L88.7423 243.178L90.9355 243.949L97.2156 243.65L98.2935 247.265L100.359 251.734L103.93 252.595L106.041 254.227L108.661 254.144L109.911 254.489L115.203 254.406L116.707 252.213L119.29 251.524L119.933 247.699L118.511 245.461L118.638 241.374L120.315 239.308L122.898 238.448L123.287 232.856L128.235 222.107L131.071 220.431L132.104 221.074L134.552 220.431L134.298 217.848L130.682 217.594L123.504 212.047L124.582 207.062L130.944 207.661L135.331 210.108L136.236 209.12L145.226 208.948L146.431 200.946L150.047 196.815L149.403 193.117L149.919 190.534L155.077 189.374L155.848 185.759L152.06 182.144L151.806 181.971L150.301 179.95L150.047 176.208L146.304 175.908L144.111 171.395L144.582 169.074L148.108 169.89L149.912 161.634L151.027 161.072L152.232 160.945L153.138 158.535H158.512L159.328 157.764L162.51 159.186L164.448 154.283L166.642 155.833L166.514 153.34L169.995 147.966L169.261 146.633L170.032 144.096L167.45 139.455L168.565 138.721L171.964 137.434L176.432 139.156L177.465 136.835L177.51 135.503L180.736 133.137L183.401 133.22L186.927 131.281L190.624 132.613L191.395 128.961L190.145 125.48L191.006 124.447L193.588 124.619L195.31 126.386L199.27 126.169L200.43 125.48L200.213 124.103L200.295 121.992L199.652 120.877L196.036 119.799L195.819 117.261L194.142 115.323L189.067 115.794L189.838 114.761L187.518 109.215L183.521 109.604L180.811 107.194L181.066 106.25L179.643 100.187L180.721 96.3623L183.304 95.9731L180.938 91.714L181.844 89.3935L180.938 86.9009L185.968 77.2225L187.256 75.935L194.09 72.2373L193.746 68.1953L195.168 66.3913L193.716 61.9001Z" stroke="#004170" stroke-width="2" stroke-miterlimit="10" stroke-linecap="round" stroke-linejoin="round"/>
</svg>
